<svg width="577" height="665" viewBox="0 0 577 665" fill="none" xmlns="http://www.w3.org/2000/svg">
<rect width="576.5" height="664.5" rx="24" fill="#F7F7F7"/>
<rect x="16" y="16" width="140" height="36" rx="12" fill="#FCFCFC"/>
<path d="M126.175 31.1584L130 34.9751L133.825 31.1584L135 32.3334L130 37.3334L125 32.3334L126.175 31.1584Z" fill="#363636"/>
<g filter="url(#filter0_dd_3279_3777)">
<circle cx="288.25" cy="250.25" r="70" fill="url(#paint0_linear_3279_3777)"/>
</g>
<g filter="url(#filter1_f_3279_3777)">
<mask id="mask0_3279_3777" style="mask-type:alpha" maskUnits="userSpaceOnUse" x="238" y="197" width="101" height="107">
<path opacity="0.0126582" d="M337.697 216.958C338.068 217.504 338.148 218.269 337.898 219.271C337.648 220.272 337.076 221.474 336.197 222.854C334.439 225.611 331.485 229.024 327.557 232.867C319.704 240.551 307.997 249.918 294.295 259.145C280.593 268.371 267.501 275.701 257.415 280.097C252.371 282.295 248.089 283.754 244.864 284.352C243.251 284.651 241.918 284.732 240.892 284.59C239.865 284.448 239.182 284.089 238.811 283.543C238.44 282.996 238.359 282.232 238.609 281.23C238.859 280.229 239.43 279.026 240.309 277.646C242.067 274.889 245.021 271.476 248.949 267.633C256.801 259.95 268.51 250.583 282.212 241.356C295.914 232.13 309.005 224.799 319.091 220.403C324.135 218.205 328.417 216.746 331.642 216.148C333.255 215.849 334.589 215.768 335.616 215.91C336.643 216.052 337.325 216.412 337.697 216.958Z" stroke="#A3FAD8" stroke-width="0.5"/>
<path opacity="0.0253165" d="M337.109 216.327C337.51 216.9 337.618 217.694 337.402 218.723C337.186 219.753 336.651 220.987 335.812 222.4C334.134 225.226 331.268 228.72 327.431 232.649C319.761 240.504 308.248 250.065 294.709 259.466C281.17 268.867 268.181 276.32 258.127 280.772C253.098 282.999 248.815 284.469 245.571 285.06C243.948 285.356 242.6 285.43 241.555 285.276C240.51 285.122 239.799 284.747 239.398 284.174C238.996 283.601 238.888 282.806 239.104 281.777C239.32 280.747 239.855 279.513 240.695 278.099C242.373 275.273 245.239 271.779 249.075 267.85C256.745 259.995 268.259 250.434 281.797 241.034C295.336 231.633 308.326 224.179 318.38 219.728C323.409 217.501 327.692 216.031 330.936 215.439C332.558 215.143 333.906 215.07 334.951 215.224C335.996 215.378 336.708 215.754 337.109 216.327Z" stroke="#A3FAD8" stroke-width="0.5"/>
<path opacity="0.0379747" d="M336.503 215.692C336.935 216.29 337.073 217.113 336.892 218.17C336.71 219.227 336.214 220.493 335.415 221.941C333.819 224.835 331.044 228.407 327.301 232.421C319.819 240.446 308.506 250.201 295.136 259.777C281.765 269.353 268.879 276.931 258.858 281.442C253.845 283.698 249.561 285.182 246.298 285.768C244.665 286.062 243.303 286.128 242.238 285.963C241.174 285.798 240.434 285.406 240.001 284.808C239.569 284.209 239.432 283.387 239.614 282.33C239.795 281.273 240.291 280.007 241.089 278.56C242.686 275.666 245.461 272.093 249.203 268.079C256.685 260.054 267.998 250.3 281.369 240.723C294.74 231.147 307.625 223.569 317.647 219.059C322.659 216.802 326.943 215.319 330.207 214.732C331.839 214.438 333.203 214.372 334.267 214.537C335.331 214.702 336.07 215.093 336.503 215.692Z" stroke="#A3FAD8" stroke-width="0.5"/>
<path opacity="0.0506329" d="M335.878 215.055C336.343 215.678 336.511 216.528 336.365 217.612C336.22 218.697 335.763 219.992 335.006 221.473C333.494 224.434 330.814 228.083 327.168 232.182C319.88 240.375 308.773 250.322 295.575 260.075C282.377 269.828 269.598 277.531 259.61 282.104C254.614 284.391 250.329 285.888 247.045 286.472C245.403 286.764 244.025 286.824 242.939 286.649C241.856 286.473 241.087 286.067 240.623 285.444C240.158 284.821 239.99 283.971 240.136 282.888C240.281 281.803 240.739 280.507 241.495 279.027C243.007 276.066 245.688 272.417 249.334 268.318C256.622 260.125 267.729 250.178 280.927 240.425C294.125 230.672 306.904 222.969 316.892 218.396C321.887 216.109 326.172 214.612 329.456 214.028C331.099 213.736 332.477 213.675 333.562 213.85C334.645 214.026 335.414 214.432 335.878 215.055Z" stroke="#A3FAD8" stroke-width="0.5"/>
<path opacity="0.0632911" d="M335.244 214.417C335.741 215.063 335.942 215.941 335.833 217.051C335.725 218.162 335.308 219.487 334.595 221C333.169 224.026 330.584 227.752 327.038 231.933C319.948 240.293 309.054 250.431 296.034 260.36C283.013 270.289 270.344 278.12 260.391 282.757C255.412 285.076 251.126 286.591 247.82 287.173C246.168 287.464 244.774 287.52 243.668 287.334C242.563 287.149 241.765 286.728 241.268 286.082C240.771 285.436 240.571 284.559 240.679 283.45C240.788 282.338 241.205 281.013 241.918 279.5C243.343 276.475 245.929 272.748 249.475 268.567C256.564 260.207 267.458 250.069 280.479 240.14C293.499 230.211 306.168 222.38 316.121 217.743C321.1 215.424 325.387 213.909 328.692 213.327C330.345 213.036 331.739 212.981 332.845 213.166C333.949 213.351 334.747 213.771 335.244 214.417Z" stroke="#A3FAD8" stroke-width="0.5"/>
<path opacity="0.0759494" d="M334.584 213.78C335.114 214.449 335.348 215.35 335.278 216.485C335.207 217.623 334.832 218.977 334.163 220.522C332.827 223.611 330.34 227.412 326.897 231.675C320.012 240.199 309.334 250.526 296.496 260.631C283.658 270.737 271.103 278.698 261.185 283.401C256.224 285.754 251.935 287.286 248.608 287.868C246.944 288.159 245.534 288.21 244.406 288.016C243.28 287.823 242.453 287.388 241.923 286.72C241.392 286.052 241.158 285.149 241.228 284.014C241.299 282.877 241.674 281.522 242.342 279.978C243.679 276.889 246.165 273.087 249.609 268.824C256.494 260.301 267.171 249.974 280.009 239.869C292.847 229.763 305.403 221.802 315.321 217.098C320.282 214.746 324.571 213.214 327.898 212.632C329.562 212.341 330.972 212.289 332.1 212.483C333.226 212.677 334.053 213.112 334.584 213.78Z" stroke="#A3FAD8" stroke-width="0.5"/>
<path opacity="0.0886076" d="M333.912 213.144C335.043 214.524 334.981 216.868 333.726 220.04C332.481 223.191 330.096 227.065 326.757 231.409C320.082 240.093 309.628 250.608 296.977 260.889C284.326 271.17 271.886 279.262 262.004 284.035C257.061 286.422 252.771 287.972 249.422 288.556C246.049 289.144 243.73 288.736 242.599 287.356C241.467 285.976 241.53 283.633 242.784 280.46C244.03 277.31 246.414 273.435 249.753 269.092C256.428 260.408 266.882 249.893 279.532 239.611C292.183 229.33 304.623 221.238 314.506 216.466C319.449 214.079 323.739 212.528 327.089 211.944C330.462 211.356 332.781 211.764 333.912 213.144Z" stroke="#A3FAD8" stroke-width="0.5"/>
<path opacity="0.101266" d="M333.221 212.51C334.422 213.929 334.436 216.324 333.277 219.554C332.125 222.765 329.844 226.711 326.613 231.133C320.153 239.975 309.928 250.675 297.469 261.132C285.01 271.589 272.688 279.813 262.843 284.656C257.918 287.079 253.626 288.65 250.253 289.237C246.86 289.828 244.491 289.408 243.29 287.99C242.089 286.571 242.074 284.176 243.233 280.946C244.385 277.736 246.666 273.79 249.898 269.367C256.358 260.525 266.583 249.825 279.042 239.368C291.501 228.911 303.823 220.688 313.668 215.844C318.593 213.422 322.885 211.851 326.258 211.263C329.651 210.673 332.02 211.092 333.221 212.51Z" stroke="#A3FAD8" stroke-width="0.5"/>
<path opacity="0.113924" d="M332.511 211.88C333.783 213.334 333.877 215.78 332.815 219.066C331.759 222.334 329.585 226.35 326.463 230.85C320.223 239.846 310.233 250.729 297.97 261.361C285.708 271.992 273.507 280.348 263.699 285.264C258.793 287.723 254.499 289.316 251.102 289.908C247.687 290.503 245.267 290.074 243.995 288.62C242.723 287.165 242.63 284.72 243.691 281.434C244.747 278.166 246.922 274.15 250.043 269.65C256.283 260.654 266.273 249.771 278.536 239.14C290.799 228.508 303 220.153 312.808 215.236C317.713 212.777 322.008 211.184 325.404 210.592C328.819 209.997 331.239 210.426 332.511 211.88Z" stroke="#A3FAD8" stroke-width="0.5"/>
<path opacity="0.126582" d="M331.79 211.254C333.134 212.742 333.31 215.237 332.347 218.576C331.389 221.9 329.323 225.984 326.314 230.56C320.299 239.707 310.549 250.77 298.487 261.574C286.426 272.378 274.349 280.866 264.58 285.858C259.693 288.355 255.396 289.97 251.975 290.569C248.538 291.17 246.066 290.734 244.721 289.246C243.376 287.758 243.201 285.263 244.163 281.924C245.121 278.599 247.188 274.516 250.197 269.941C256.211 260.794 265.961 249.731 278.023 238.927C290.085 228.123 302.162 219.634 311.931 214.642C316.818 212.145 321.114 210.53 324.536 209.931C327.972 209.33 330.445 209.766 331.79 211.254Z" stroke="#A3FAD8" stroke-width="0.5"/>
<path opacity="0.139241" d="M331.045 210.634C332.463 212.154 332.724 214.695 331.862 218.086C331.004 221.464 329.049 225.613 326.155 230.262C320.37 239.556 310.865 250.795 299.008 261.771C287.152 272.747 275.202 281.368 265.471 286.437C260.604 288.972 256.306 290.612 252.859 291.219C249.4 291.828 246.873 291.385 245.454 289.865C244.036 288.346 243.776 285.805 244.638 282.415C245.496 279.036 247.451 274.887 250.344 270.238C256.129 260.945 265.634 249.705 277.491 238.729C289.348 227.753 301.298 219.132 311.028 214.063C315.895 211.528 320.194 209.888 323.64 209.282C327.1 208.673 329.626 209.115 331.045 210.634Z" stroke="#A3FAD8" stroke-width="0.5"/>
<path opacity="0.151899" d="M330.291 210.021C331.786 211.57 332.132 214.155 331.374 217.595C330.617 221.025 328.776 225.238 326 229.958C320.45 239.394 311.194 250.807 299.546 261.952C287.899 273.097 276.079 281.853 266.388 287C261.542 289.575 257.241 291.239 253.769 291.856C250.285 292.474 247.705 292.027 246.21 290.478C244.716 288.93 244.369 286.345 245.128 282.905C245.884 279.475 247.725 275.262 250.501 270.542C256.052 261.106 265.307 249.694 276.954 238.548C288.601 227.403 300.422 218.647 310.113 213.5C314.96 210.925 319.261 209.261 322.733 208.644C326.216 208.026 328.796 208.473 330.291 210.021Z" stroke="#A3FAD8" stroke-width="0.5"/>
<path opacity="0.164557" d="M329.525 209.416C331.097 210.991 331.533 213.617 330.879 217.105C330.226 220.584 328.499 224.859 325.843 229.648C320.532 239.222 311.532 250.805 300.098 262.117C288.665 273.43 276.975 282.318 267.325 287.545C262.499 290.16 258.195 291.852 254.697 292.48C251.189 293.109 248.555 292.659 246.983 291.084C245.411 289.509 244.975 286.883 245.629 283.395C246.282 279.916 248.007 275.641 250.664 270.853C255.975 261.278 264.976 249.696 276.409 238.383C287.843 227.071 299.532 218.182 309.181 212.955C314.008 210.34 318.312 208.648 321.811 208.02C325.318 207.391 327.953 207.842 329.525 209.416Z" stroke="#A3FAD8" stroke-width="0.5"/>
<path opacity="0.177215" d="M328.745 208.82C330.396 210.419 330.922 213.084 330.375 216.618C329.828 220.144 328.219 224.476 325.685 229.332C320.618 239.04 311.877 250.788 300.66 262.265C289.444 273.742 277.89 282.763 268.281 288.073C263.476 290.728 259.17 292.448 255.644 293.089C252.111 293.73 249.421 293.279 247.771 291.68C246.12 290.082 245.594 287.417 246.141 283.883C246.688 280.357 248.296 276.024 250.831 271.168C255.898 261.46 264.639 249.713 275.855 238.235C287.071 226.758 298.626 217.737 308.234 212.427C313.04 209.772 317.347 208.052 320.872 207.412C324.405 206.77 327.095 207.221 328.745 208.82Z" stroke="#A3FAD8" stroke-width="0.5"/>
<path opacity="0.189873" d="M327.94 208.233C329.67 209.853 330.29 212.555 329.85 216.132C329.412 219.703 327.923 224.091 325.512 229.011C320.693 238.848 312.216 250.756 301.221 262.396C290.226 274.036 278.808 283.189 269.241 288.581C264.457 291.278 260.148 293.027 256.596 293.681C253.037 294.337 250.29 293.887 248.56 292.267C246.83 290.646 246.21 287.945 246.65 284.368C247.088 280.797 248.577 276.409 250.988 271.489C255.807 261.652 264.284 249.744 275.279 238.104C286.274 226.464 297.692 217.311 307.259 211.919C312.043 209.222 316.352 207.473 319.904 206.819C323.463 206.163 326.209 206.613 327.94 208.233Z" stroke="#A3FAD8" stroke-width="0.5"/>
<path opacity="0.202532" d="M327.128 207.657C328.94 209.296 329.655 212.031 329.325 215.649C328.996 219.261 327.628 223.704 325.344 228.686C320.776 238.646 312.568 250.711 301.797 262.51C291.027 274.309 279.747 283.594 270.224 289.07C265.461 291.809 261.149 293.588 257.569 294.258C253.984 294.93 251.181 294.482 249.369 292.842C247.558 291.203 246.843 288.468 247.173 284.851C247.502 281.239 248.87 276.796 251.154 271.814C255.722 261.854 263.93 249.79 274.7 237.991C285.47 226.192 296.75 216.906 306.274 211.43C311.037 208.691 315.348 206.912 318.929 206.242C322.514 205.57 325.316 206.018 327.128 207.657Z" stroke="#A3FAD8" stroke-width="0.5"/>
<path opacity="0.21519" d="M326.31 207.093C328.204 208.749 329.015 211.515 328.797 215.171C328.578 218.822 327.334 223.316 325.178 228.357C320.866 238.436 312.93 250.651 302.388 262.606C291.846 274.561 280.707 283.976 271.227 289.537C266.486 292.319 262.172 294.129 258.563 294.817C254.951 295.505 252.091 295.063 250.197 293.408C248.303 291.752 247.492 288.985 247.71 285.33C247.928 281.678 249.173 277.184 251.329 272.144C255.641 262.065 263.576 249.849 274.118 237.894C284.66 225.94 295.799 216.524 305.279 210.963C310.021 208.182 314.335 206.372 317.943 205.684C321.556 204.995 324.416 205.438 326.31 207.093Z" stroke="#A3FAD8" stroke-width="0.5"/>
<path opacity="0.227848" d="M325.473 206.541C327.45 208.211 328.36 211.005 328.254 214.697C328.149 218.385 327.029 222.927 325.003 228.024C320.95 238.216 313.29 250.577 302.979 262.684C292.669 274.791 281.673 284.337 272.237 289.984C267.518 292.809 263.201 294.651 259.563 295.358C255.923 296.065 253.006 295.629 251.028 293.959C249.05 292.29 248.141 289.495 248.246 285.804C248.352 282.116 249.471 277.574 251.498 272.477C255.551 262.285 263.21 249.923 273.521 237.816C283.831 225.708 294.827 216.164 304.264 210.516C308.983 207.692 313.3 205.85 316.937 205.143C320.577 204.436 323.495 204.872 325.473 206.541Z" stroke="#A3FAD8" stroke-width="0.5"/>
<path opacity="0.240506" d="M324.635 206.003C326.697 207.683 327.706 210.503 327.715 214.227C327.723 217.949 326.731 222.536 324.835 227.687C321.045 237.986 313.665 250.489 303.589 262.745C293.513 275.001 282.661 284.674 273.27 290.408C268.573 293.276 264.253 295.151 260.587 295.879C256.918 296.606 253.942 296.178 251.88 294.497C249.818 292.817 248.809 289.997 248.8 286.273C248.791 282.551 249.784 277.964 251.68 272.813C255.47 262.514 262.85 250.011 272.926 237.755C283.002 225.499 293.854 215.826 303.245 210.092C307.942 207.224 312.262 205.349 315.928 204.622C319.597 203.894 322.573 204.322 324.635 206.003Z" stroke="#A3FAD8" stroke-width="0.5"/>
<path opacity="0.253165" d="M323.777 205.478C325.924 207.167 327.036 210.01 327.16 213.764C327.284 217.517 326.419 222.146 324.656 227.348C321.132 237.748 314.034 250.386 304.195 262.787C294.356 275.188 283.651 284.988 274.305 290.81C269.631 293.722 265.308 295.631 261.612 296.38C257.915 297.129 254.88 296.711 252.732 295.022C250.584 293.332 249.473 290.49 249.349 286.735C249.225 282.982 250.091 278.354 251.853 273.152C255.378 262.752 262.474 250.114 272.313 237.713C282.152 225.312 292.858 215.512 302.205 209.69C306.879 206.778 311.201 204.868 314.897 204.12C318.594 203.37 321.629 203.789 323.777 205.478Z" stroke="#A3FAD8" stroke-width="0.5"/>
<path opacity="0.265823" d="M322.914 204.969C325.148 206.664 326.362 209.527 326.602 213.309C326.843 217.09 326.107 221.759 324.479 227.007C321.222 237.503 314.412 250.27 304.812 262.812C295.213 275.354 284.656 285.279 275.355 291.189C270.704 294.144 266.379 296.089 262.653 296.861C258.927 297.633 255.833 297.227 253.598 295.532C251.364 293.836 250.149 290.974 249.909 287.191C249.668 283.41 250.404 278.742 252.032 273.493C255.288 262.997 262.1 250.23 271.699 237.688C281.298 225.147 291.855 215.222 301.156 209.312C305.807 206.356 310.132 204.412 313.858 203.64C317.584 202.868 320.679 203.274 322.914 204.969Z" stroke="#A3FAD8" stroke-width="0.5"/>
<path opacity="0.278481" d="M322.037 204.474C324.358 206.173 325.675 209.053 326.034 212.859C326.392 216.666 325.787 221.37 324.294 226.663C321.309 237.249 314.787 250.14 305.43 262.818C296.072 275.497 285.664 285.544 276.409 291.543C271.781 294.543 267.453 296.522 263.697 297.319C259.941 298.116 256.788 297.725 254.466 296.026C252.144 294.327 250.827 291.447 250.468 287.64C250.11 283.834 250.715 279.13 252.208 273.836C255.193 263.251 261.716 250.36 271.073 237.682C280.43 225.004 290.838 214.956 300.093 208.957C304.721 205.957 309.049 203.977 312.805 203.181C316.561 202.384 319.715 202.776 322.037 204.474Z" stroke="#A3FAD8" stroke-width="0.5"/>
<path opacity="0.291139" d="M321.161 203.996C323.57 205.695 324.993 208.589 325.47 212.418C325.947 216.247 325.474 220.984 324.117 226.319C321.405 236.987 315.174 249.996 306.061 262.807C296.948 275.617 286.69 285.785 277.482 291.873C272.877 294.917 268.546 296.933 264.76 297.756C260.974 298.578 257.76 298.203 255.35 296.503C252.941 294.804 251.519 291.91 251.042 288.082C250.565 284.253 251.037 279.516 252.393 274.181C255.106 263.512 261.337 250.504 270.45 237.694C279.563 224.883 289.821 214.714 299.029 208.626C303.634 205.582 307.966 203.566 311.752 202.744C315.537 201.921 318.751 202.297 321.161 203.996Z" stroke="#A3FAD8" stroke-width="0.5"/>
<path opacity="0.303797" d="M320.27 203.535C322.769 205.232 324.297 208.137 324.893 211.985C325.49 215.833 325.15 220.6 323.932 225.974C321.494 236.719 315.556 249.839 306.689 262.776C297.821 275.714 287.716 286.002 278.554 292.179C273.973 295.268 269.638 297.321 265.821 298.171C262.005 299.021 258.731 298.663 256.232 296.966C253.734 295.268 252.206 292.363 251.609 288.515C251.013 284.667 251.353 279.899 252.572 274.526C255.009 263.78 260.947 250.661 269.815 237.723C278.682 224.785 288.788 214.497 297.949 208.32C302.531 205.231 306.865 203.179 310.682 202.329C314.498 201.479 317.772 201.837 320.27 203.535Z" stroke="#A3FAD8" stroke-width="0.5"/>
<path opacity="0.316456" d="M319.38 203.09C321.967 204.783 323.603 207.696 324.32 211.56C325.037 215.425 324.83 220.219 323.749 225.628C321.589 236.444 315.946 249.668 307.326 262.729C298.706 275.789 288.753 286.194 279.638 292.46C275.08 295.594 270.743 297.685 266.895 298.563C263.048 299.441 259.713 299.102 257.126 297.409C254.539 295.716 252.903 292.803 252.186 288.94C251.469 285.075 251.676 280.281 252.756 274.872C254.917 264.056 260.56 250.831 269.18 237.771C277.801 224.711 287.753 214.307 296.868 208.04C301.426 204.906 305.764 202.814 309.612 201.936C313.458 201.058 316.793 201.397 319.38 203.09Z" stroke="#A3FAD8" stroke-width="0.5"/>
<path opacity="0.329114" d="M318.481 202.663C321.158 204.349 322.902 207.268 323.739 211.145C324.578 215.023 324.504 219.841 323.563 225.282C321.68 236.162 316.334 249.485 307.963 262.663C299.591 275.841 289.791 286.36 280.724 292.716C276.19 295.894 271.849 298.024 267.97 298.932C264.093 299.84 260.697 299.522 258.02 297.836C255.343 296.15 253.6 293.232 252.762 289.355C251.924 285.476 251.997 280.659 252.938 275.218C254.821 264.337 260.167 251.014 268.539 237.836C276.91 224.658 286.71 214.14 295.778 207.784C300.312 204.606 304.652 202.476 308.531 201.568C312.409 200.66 315.804 200.978 318.481 202.663Z" stroke="#A3FAD8" stroke-width="0.5"/>
<path opacity="0.341772" d="M317.582 202.255C320.349 203.931 322.2 206.852 323.159 210.74C324.119 214.629 324.181 219.467 323.379 224.936C321.776 235.875 316.726 249.289 308.604 262.58C300.482 275.871 290.836 286.501 281.816 292.947C277.306 296.17 272.962 298.338 269.052 299.277C265.143 300.216 261.687 299.921 258.92 298.245C256.153 296.569 254.301 293.647 253.342 289.76C252.382 285.871 252.32 281.033 253.122 275.564C254.726 264.626 259.774 251.21 267.897 237.92C276.019 224.629 285.665 213.999 294.685 207.553C299.195 204.331 303.539 202.161 307.449 201.222C311.358 200.284 314.815 200.579 317.582 202.255Z" stroke="#A3FAD8" stroke-width="0.5"/>
<path opacity="0.35443" d="M316.683 201.864C319.54 203.528 321.501 206.45 322.582 210.344C323.664 214.241 323.86 219.096 323.199 224.592C321.875 235.581 317.125 249.082 309.253 262.48C301.381 275.878 291.889 286.617 282.916 293.152C278.429 296.419 274.082 298.628 270.14 299.599C266.201 300.569 262.682 300.3 259.825 298.636C256.968 296.972 255.008 294.05 253.926 290.156C252.845 286.259 252.649 281.404 253.311 275.909C254.634 264.919 259.384 251.418 267.256 238.02C275.129 224.622 284.621 213.883 293.593 207.349C298.08 204.081 302.427 201.872 306.368 200.901C310.308 199.931 313.826 200.2 316.683 201.864Z" stroke="#A3FAD8" stroke-width="0.5"/>
<path opacity="0.367089" d="M315.784 201.492C318.731 203.142 320.801 206.06 322.005 209.959C323.209 213.86 323.54 218.73 323.019 224.248C321.975 235.282 317.524 248.862 309.902 262.363C302.28 275.863 292.943 286.709 284.018 293.332C279.555 296.644 275.204 298.893 271.231 299.897C267.26 300.901 263.68 300.657 260.732 299.007C257.785 297.358 255.715 294.44 254.512 290.541C253.308 286.64 252.976 281.77 253.498 276.253C254.541 265.218 258.992 251.639 266.614 238.138C274.235 224.637 283.573 213.792 292.499 207.168C296.962 203.856 301.313 201.607 305.286 200.603C309.257 199.599 312.836 199.843 315.784 201.492Z" stroke="#A3FAD8" stroke-width="0.5"/>
<path opacity="0.379747" d="M314.877 201.139C320.954 204.405 323.596 212.807 322.832 223.904C322.069 234.977 317.917 248.63 310.546 262.228C303.175 275.826 293.991 286.775 285.112 293.487C276.215 300.213 267.71 302.626 261.633 299.361C255.556 296.095 252.914 287.693 253.678 276.595C254.44 265.522 258.592 251.87 265.964 238.272C273.335 224.673 282.519 213.725 291.397 207.013C300.295 200.286 308.8 197.874 314.877 201.139Z" stroke="#A3FAD8" stroke-width="0.5"/>
<path opacity="0.392405" d="M313.967 200.805C320.224 204.032 323.125 212.437 322.642 223.565C322.16 234.67 318.307 248.387 311.186 262.077C304.065 275.767 295.035 286.817 286.204 293.616C277.355 300.43 268.786 302.921 262.528 299.695C256.271 296.468 253.37 288.063 253.853 276.935C254.335 265.83 258.188 252.112 265.309 238.422C272.43 224.732 281.46 213.684 290.291 206.884C299.14 200.07 307.709 197.579 313.967 200.805Z" stroke="#A3FAD8" stroke-width="0.5"/>
<path opacity="0.405063" d="M313.071 200.49C319.509 203.673 322.669 212.075 322.467 223.226C322.265 234.357 318.711 248.134 311.839 261.911C304.968 275.688 296.091 286.834 287.306 293.721C278.505 300.621 269.873 303.193 263.435 300.009C256.997 296.826 253.837 288.425 254.039 277.274C254.241 266.143 257.796 252.366 264.668 238.589C271.539 224.812 280.415 213.665 289.199 206.778C298.001 199.878 306.633 197.307 313.071 200.49Z" stroke="#A3FAD8" stroke-width="0.5"/>
<path opacity="0.417722" d="M312.168 200.194C318.787 203.33 322.205 211.722 322.282 222.891C322.36 234.041 319.102 247.871 312.48 261.729C305.857 275.587 297.134 286.828 288.396 293.802C279.642 300.788 270.946 303.441 264.327 300.306C257.709 297.17 254.291 288.779 254.213 277.609C254.135 266.459 257.393 252.629 264.015 238.771C270.638 224.913 279.361 213.672 288.099 206.698C296.853 199.712 305.549 197.059 312.168 200.194Z" stroke="#A3FAD8" stroke-width="0.5"/>
<path opacity="0.43038" d="M311.283 199.918C318.082 203.001 321.758 211.377 322.114 222.558C322.47 233.722 319.509 247.598 313.134 261.532C306.76 275.466 298.189 286.798 289.496 293.858C280.789 300.929 272.029 303.665 265.231 300.582C258.432 297.499 254.755 289.123 254.399 277.942C254.043 266.778 257.004 252.902 263.379 238.968C269.753 225.034 278.325 213.702 287.018 206.642C295.724 199.571 304.484 196.834 311.283 199.918Z" stroke="#A3FAD8" stroke-width="0.5"/>
<path opacity="0.443038" d="M310.388 199.66C317.367 202.688 321.3 211.042 321.934 222.229C322.567 233.4 319.901 247.316 313.773 261.321C307.644 275.326 299.224 286.746 290.576 293.891C281.916 301.046 273.092 303.867 266.114 300.84C259.135 297.813 255.202 289.458 254.568 278.272C253.934 267.101 256.601 253.185 262.729 239.18C268.857 225.175 277.278 213.755 285.926 206.61C294.586 199.455 303.41 196.633 310.388 199.66Z" stroke="#A3FAD8" stroke-width="0.5"/>
<path opacity="0.455696" d="M309.511 199.422C316.669 202.389 320.857 210.716 321.767 221.903C322.676 233.075 320.303 247.025 314.419 261.095C308.535 275.166 300.264 286.67 291.661 293.899C283.046 301.138 274.159 304.046 267.001 301.079C259.844 298.112 255.655 289.784 254.745 278.597C253.836 267.424 256.209 253.475 262.093 239.405C267.977 225.335 276.248 213.829 284.851 206.6C293.466 199.362 302.353 196.455 309.511 199.422Z" stroke="#A3FAD8" stroke-width="0.5"/>
<path opacity="0.468354" d="M308.627 199.202C315.963 202.105 320.407 210.4 321.591 221.581C322.773 232.749 320.691 246.726 315.05 260.857C309.409 274.987 301.286 286.573 292.726 293.886C284.155 301.207 275.204 304.201 267.868 301.298C260.532 298.395 256.089 290.1 254.905 278.919C253.722 267.751 255.804 253.774 261.446 239.643C267.087 225.513 275.21 213.927 283.77 206.614C292.34 199.293 301.291 196.299 308.627 199.202Z" stroke="#A3FAD8" stroke-width="0.5"/>
<path opacity="0.481013" d="M307.763 199.001C315.277 201.836 319.975 210.094 321.43 221.263C322.885 232.421 321.09 246.419 315.689 260.605C310.288 274.791 302.312 286.457 293.794 293.851C285.268 301.254 276.253 304.336 268.739 301.5C261.225 298.664 256.527 290.407 255.072 279.237C253.617 268.079 255.412 254.08 260.813 239.894C266.214 225.709 274.19 214.044 282.708 206.649C291.234 199.247 300.249 196.165 307.763 199.001Z" stroke="#A3FAD8" stroke-width="0.5"/>
<path opacity="0.493671" d="M306.912 198.818C314.602 201.583 319.551 209.797 321.276 220.95C323 232.093 321.492 246.107 316.329 260.342C311.165 274.578 303.333 286.318 294.856 293.793C286.372 301.276 277.294 304.447 269.604 301.683C261.913 298.918 256.964 290.703 255.239 279.55C253.515 268.407 255.024 254.393 260.187 240.158C265.35 225.922 273.182 214.182 281.658 206.706C290.143 199.224 299.222 196.053 306.912 198.818Z" stroke="#A3FAD8" stroke-width="0.5"/>
<path opacity="0.506329" d="M306.06 198.652C313.926 201.343 319.125 209.511 321.117 220.642C323.108 231.764 321.882 245.788 316.953 260.068C312.025 274.349 304.335 286.161 295.899 293.716C287.456 301.277 278.313 304.538 270.447 301.847C262.581 299.156 257.383 290.989 255.39 279.858C253.4 268.736 254.626 254.713 259.554 240.432C264.483 226.151 272.173 214.34 280.609 206.784C289.052 199.223 298.194 195.962 306.06 198.652Z" stroke="#A3FAD8" stroke-width="0.5"/>
<path opacity="0.518987" d="M305.225 198.505C313.265 201.119 318.712 209.234 320.968 220.339C323.223 231.435 322.275 245.463 317.578 259.784C312.881 274.105 305.332 285.985 296.935 293.619C288.532 301.258 279.324 304.609 271.284 301.995C263.243 299.381 257.797 291.266 255.541 280.161C253.287 269.065 254.233 255.038 258.93 240.717C263.627 226.396 271.177 214.515 279.574 206.882C287.978 199.243 297.184 195.891 305.225 198.505Z" stroke="#A3FAD8" stroke-width="0.5"/>
<path opacity="0.531646" d="M304.396 198.375C312.61 200.91 318.301 208.968 320.818 220.041C323.334 231.107 322.663 245.133 318.195 259.489C313.727 273.845 306.313 285.791 297.953 293.502C289.588 301.217 280.317 304.659 272.104 302.125C263.89 299.591 258.198 291.532 255.681 280.459C253.165 269.393 253.837 255.367 258.305 241.011C262.774 226.654 270.186 214.709 278.545 206.998C286.911 199.283 296.182 195.841 304.396 198.375Z" stroke="#A3FAD8" stroke-width="0.5"/>
<path opacity="0.544304" d="M303.586 198.262C311.972 200.714 317.907 208.712 320.681 219.749C323.454 230.78 323.055 244.8 318.812 259.187C314.568 273.573 307.29 285.581 298.966 293.367C290.637 301.158 281.301 304.69 272.915 302.238C264.53 299.786 258.595 291.788 255.82 280.751C253.047 269.721 253.447 255.701 257.69 241.314C261.934 226.927 269.212 214.92 277.536 207.133C285.864 199.343 295.2 195.81 303.586 198.262Z" stroke="#A3FAD8" stroke-width="0.5"/>
<path opacity="0.556962" d="M302.795 198.165C311.351 200.532 317.526 208.465 320.555 219.462C323.582 230.454 323.451 244.462 319.428 258.875C315.405 273.288 308.258 285.354 299.968 293.214C291.675 301.078 282.274 304.703 273.718 302.335C265.161 299.968 258.987 292.034 255.958 281.037C252.931 270.046 253.062 256.038 257.085 241.625C261.108 227.212 268.255 215.145 276.544 207.285C284.838 199.421 294.238 195.797 302.795 198.165Z" stroke="#A3FAD8" stroke-width="0.5"/>
<path opacity="0.56962" d="M302.006 198.084C310.731 200.365 317.143 208.23 320.423 219.182C323.701 230.13 323.834 244.122 320.027 258.557C316.221 272.992 309.202 285.114 300.945 293.046C292.684 300.982 283.218 304.697 274.493 302.416C265.767 300.135 259.355 292.269 256.076 281.317C252.797 270.369 252.666 256.378 256.472 241.943C260.279 227.508 267.297 215.386 275.554 207.453C283.814 199.518 293.28 195.803 302.006 198.084Z" stroke="#A3FAD8" stroke-width="0.5"/>
<path opacity="0.582278" d="M301.244 198.018C310.137 200.211 316.784 208.005 320.31 218.909C323.835 229.809 324.226 243.78 320.632 258.233C317.037 272.685 310.144 284.859 301.918 292.862C293.688 300.869 284.157 304.674 275.263 302.481C266.37 300.289 259.723 292.495 256.197 281.591C252.672 270.69 252.281 256.72 255.875 242.268C259.47 227.816 266.363 215.641 274.589 207.637C282.819 199.631 292.35 195.826 301.244 198.018Z" stroke="#A3FAD8" stroke-width="0.5"/>
<path opacity="0.594937" d="M300.491 197.967C309.551 200.07 316.429 207.789 320.198 218.642C323.966 229.491 324.611 243.437 321.224 257.902C317.838 272.368 311.065 284.593 302.867 292.665C294.667 300.74 285.069 304.635 276.01 302.532C266.95 300.429 260.072 292.711 256.303 281.858C252.535 271.009 251.89 257.063 255.277 242.597C258.664 228.131 265.436 215.908 273.634 207.835C281.834 199.761 291.431 195.865 300.491 197.967Z" stroke="#A3FAD8" stroke-width="0.5"/>
<path opacity="0.607595" d="M299.761 197.931C308.985 199.942 316.092 207.584 320.099 218.381C324.106 229.176 325.001 243.093 321.817 257.569C318.633 272.044 311.978 284.315 303.806 292.454C295.632 300.596 285.969 304.581 276.744 302.57C267.52 300.558 260.413 292.917 256.405 282.119C252.398 271.324 251.505 257.407 254.689 242.932C257.873 228.456 264.527 216.185 272.698 208.046C280.872 199.904 290.537 195.919 299.761 197.931Z" stroke="#A3FAD8" stroke-width="0.5"/>
<path opacity="0.620253" d="M299.048 197.907C308.436 199.826 315.767 207.389 320.009 218.128C324.251 228.866 325.389 242.75 322.402 257.231C319.416 271.712 312.875 284.025 304.728 292.23C296.579 300.437 286.848 304.512 277.46 302.593C268.072 300.674 260.741 293.111 256.499 282.371C252.258 271.634 251.12 257.75 254.106 243.269C257.092 228.788 263.633 216.474 271.78 208.269C279.93 200.062 289.661 195.988 299.048 197.907Z" stroke="#A3FAD8" stroke-width="0.5"/>
<path opacity="0.632911" d="M298.354 197.897C307.903 199.723 315.456 207.203 319.928 217.883C324.4 228.56 325.777 242.408 322.983 256.891C320.189 271.374 313.758 283.728 305.632 291.997C297.504 300.267 287.705 304.429 278.156 302.603C268.607 300.777 261.054 293.296 256.582 282.618C252.111 271.94 250.734 258.093 253.528 243.61C256.321 229.126 262.753 216.772 270.879 208.503C279.006 200.234 288.804 196.071 298.354 197.897Z" stroke="#A3FAD8" stroke-width="0.5"/>
<path opacity="0.64557" d="M297.674 197.899C307.384 199.632 315.154 207.029 319.852 217.645C324.549 228.259 326.158 242.067 323.552 256.549C320.945 271.031 314.62 283.423 306.513 291.753C298.405 300.084 288.537 304.334 278.828 302.601C269.118 300.869 261.346 293.472 256.649 282.855C251.952 272.241 250.342 258.433 252.949 243.951C255.556 229.47 261.881 217.078 269.988 208.748C278.096 200.416 287.964 196.167 297.674 197.899Z" stroke="#A3FAD8" stroke-width="0.5"/>
<path opacity="0.658228" d="M297.015 197.913C306.884 199.552 314.87 206.864 319.788 217.414C324.706 227.964 326.543 241.729 324.118 256.206C321.693 270.684 315.468 283.11 307.378 291.499C299.286 299.89 289.35 304.226 279.481 302.587C269.612 300.948 261.627 293.637 256.708 283.086C251.79 272.536 249.953 258.771 252.378 244.294C254.803 229.816 261.028 217.39 269.119 209.001C277.21 200.61 287.147 196.274 297.015 197.913Z" stroke="#A3FAD8" stroke-width="0.5"/>
<path opacity="0.670886" d="M296.383 197.937C306.409 199.482 314.606 206.708 319.74 217.192C324.874 227.675 326.933 241.394 324.684 255.864C322.435 270.333 316.306 282.792 308.229 291.239C300.152 299.687 290.144 304.108 280.118 302.563C270.093 301.018 261.895 293.792 256.761 283.308C251.627 272.825 249.568 259.105 251.817 244.635C254.067 230.166 260.195 217.708 268.272 209.261C276.349 200.813 286.357 196.393 296.383 197.937Z" stroke="#A3FAD8" stroke-width="0.5"/>
<path opacity="0.683544" d="M295.776 197.973C305.958 199.424 314.363 206.562 319.709 216.977C325.055 227.392 327.328 241.065 325.249 255.524C323.17 269.983 317.134 282.47 309.067 290.973C301.001 299.476 290.921 303.978 280.74 302.527C270.558 301.075 262.154 293.938 256.808 283.523C251.462 273.108 249.187 259.436 251.267 244.977C253.346 230.518 259.383 218.03 267.449 209.527C275.516 201.024 285.595 196.521 295.776 197.973Z" stroke="#A3FAD8" stroke-width="0.5"/>
<path opacity="0.696203" d="M295.18 198.018C305.516 199.376 314.126 206.427 319.678 216.772C325.231 227.117 327.715 240.739 325.799 255.185C323.884 269.631 317.934 282.145 309.875 290.701C301.816 299.257 291.664 303.841 281.328 302.482C270.992 301.123 262.383 294.073 256.83 283.728C251.278 273.383 248.794 259.761 250.71 245.315C252.625 230.869 258.575 218.355 266.634 209.799C274.693 201.243 284.844 196.659 295.18 198.018Z" stroke="#A3FAD8" stroke-width="0.5"/>
<path opacity="0.708861" d="M294.607 198.072C305.096 199.338 313.905 206.301 319.659 216.575C325.413 226.849 328.101 240.42 326.343 254.85C324.586 269.28 318.717 281.818 310.663 290.424C302.609 299.031 292.383 303.695 281.894 302.428C271.405 301.161 262.595 294.199 256.841 283.925C251.087 273.651 248.4 260.08 250.158 245.65C251.916 231.22 257.783 218.682 265.837 210.075C273.892 201.469 284.117 196.805 294.607 198.072Z" stroke="#A3FAD8" stroke-width="0.5"/>
<path opacity="0.721519" d="M294.06 198.134C304.701 199.31 313.707 206.184 319.658 216.387C325.609 226.59 328.494 240.107 326.887 254.519C325.281 268.931 319.489 281.49 311.436 290.145C303.383 298.801 293.082 303.541 282.441 302.366C271.8 301.19 262.795 294.316 256.844 284.113C250.893 273.91 248.008 260.393 249.614 245.981C251.221 231.569 257.013 219.01 265.065 210.355C273.118 201.699 283.419 196.958 294.06 198.134Z" stroke="#A3FAD8" stroke-width="0.5"/>
<path opacity="0.734177" d="M293.54 198.204C304.331 199.291 313.53 206.077 319.673 216.208C325.815 226.339 328.892 239.802 327.43 254.194C325.969 268.585 320.248 281.163 312.193 289.865C304.138 298.566 293.76 303.382 282.969 302.296C272.178 301.21 262.979 294.423 256.836 284.292C250.693 274.161 247.618 260.698 249.079 246.307C250.541 231.915 256.261 219.338 264.316 210.636C272.371 201.934 282.748 197.118 293.54 198.204Z" stroke="#A3FAD8" stroke-width="0.5"/>
<path opacity="0.746835" d="M293.035 198.282C303.975 199.28 313.364 205.98 319.694 216.039C326.023 226.098 329.283 239.505 327.96 253.874C326.637 268.244 320.983 280.837 312.923 289.582C304.862 298.328 294.406 303.216 283.465 302.218C272.525 301.219 263.136 294.52 256.807 284.461C250.478 274.402 247.217 260.995 248.54 246.626C249.863 232.257 255.518 219.663 263.578 210.917C271.639 202.172 282.094 197.283 293.035 198.282Z" stroke="#A3FAD8" stroke-width="0.5"/>
<path opacity="0.759494" d="M292.565 198.366C314.734 200.19 330.882 224.845 328.498 253.562C326.113 282.279 306.118 303.959 283.949 302.135C261.779 300.31 245.632 275.655 248.016 246.938C250.401 218.221 270.395 196.541 292.565 198.366Z" stroke="#A3FAD8" stroke-width="0.5"/>
<path opacity="0.772152" d="M292.107 198.456C314.57 200.113 331.153 224.594 329.019 253.258C326.886 281.922 306.859 303.701 284.396 302.044C261.933 300.386 245.35 275.905 247.483 247.242C249.617 218.578 269.643 196.798 292.107 198.456Z" stroke="#A3FAD8" stroke-width="0.5"/>
<path opacity="0.78481" d="M291.677 198.551C314.432 200.047 331.437 224.356 329.54 252.963C327.644 281.571 307.578 303.444 284.822 301.949C262.067 300.454 245.061 276.144 246.958 247.537C248.854 218.929 268.921 197.056 291.677 198.551Z" stroke="#A3FAD8" stroke-width="0.5"/>
<path opacity="0.797468" d="M291.274 198.651C314.32 199.99 331.735 224.13 330.062 252.679C328.389 281.227 308.273 303.187 285.227 301.849C262.181 300.51 244.765 276.37 246.438 247.821C248.111 219.272 268.229 197.312 291.274 198.651Z" stroke="#A3FAD8" stroke-width="0.5"/>
<path opacity="0.810127" d="M290.9 198.755C314.234 199.944 332.048 223.918 330.585 252.405C329.121 280.893 308.944 302.933 285.61 301.745C262.275 300.556 244.462 276.582 245.926 248.095C247.389 219.608 267.565 197.568 290.9 198.755Z" stroke="#A3FAD8" stroke-width="0.5"/>
<path opacity="0.822785" d="M290.542 198.863C314.164 199.908 332.362 223.719 331.095 252.144C329.828 280.568 309.581 302.68 285.96 301.636C262.338 300.592 244.14 276.78 245.407 248.356C246.674 219.932 266.921 197.819 290.542 198.863Z" stroke="#A3FAD8" stroke-width="0.5"/>
<path opacity="0.835443" d="M290.21 198.975C314.117 199.882 332.688 223.536 331.603 251.895C330.517 280.254 310.192 302.432 286.285 301.525C262.377 300.618 243.805 276.964 244.891 248.605C245.976 220.246 266.303 198.068 290.21 198.975Z" stroke="#A3FAD8" stroke-width="0.5"/>
<path opacity="0.848101" d="M289.91 199.089C314.102 199.867 333.035 223.368 332.117 251.66C331.2 279.953 310.783 302.188 286.591 301.41C262.399 300.632 243.467 277.132 244.385 248.839C245.302 220.547 265.718 198.312 289.91 199.089Z" stroke="#A3FAD8" stroke-width="0.5"/>
<path opacity="0.860759" d="M289.629 199.206C314.104 199.863 333.385 223.216 332.622 251.441C331.858 279.665 311.341 301.95 286.865 301.294C262.389 300.637 243.108 277.284 243.872 249.059C244.636 220.835 265.153 198.549 289.629 199.206Z" stroke="#A3FAD8" stroke-width="0.5"/>
<path opacity="0.873418" d="M289.381 199.325C314.139 199.869 333.757 223.081 333.133 251.236C332.509 279.392 311.881 301.72 287.122 301.176C262.363 300.631 242.745 277.419 243.37 249.263C243.994 221.108 264.622 198.781 289.381 199.325Z" stroke="#A3FAD8" stroke-width="0.5"/>
<path opacity="0.886076" d="M289.154 199.445C314.194 199.886 334.137 222.963 333.639 251.049C333.14 279.134 312.39 301.496 287.349 301.055C262.308 300.614 242.366 277.536 242.865 249.45C243.364 221.365 264.113 199.004 289.154 199.445Z" stroke="#A3FAD8" stroke-width="0.5"/>
<path opacity="0.898734" d="M288.958 199.567C314.28 199.914 334.536 222.864 334.148 250.88C333.761 278.895 312.878 301.28 287.556 300.933C262.234 300.586 241.979 277.637 242.366 249.622C242.753 221.606 263.635 199.22 288.958 199.567Z" stroke="#A3FAD8" stroke-width="0.5"/>
<path opacity="0.911392" d="M288.777 199.69C314.38 199.953 334.936 222.784 334.646 250.728C334.356 278.672 313.33 301.073 287.727 300.81C262.124 300.547 241.567 277.717 241.857 249.773C242.147 221.829 263.173 199.426 288.777 199.69Z" stroke="#A3FAD8" stroke-width="0.5"/>
<path opacity="0.924051" d="M288.625 199.813C314.509 200.003 335.356 222.722 335.149 250.595C334.942 278.468 313.761 300.878 287.877 300.687C261.993 300.497 241.147 277.778 241.354 249.905C241.561 222.032 262.741 199.623 288.625 199.813Z" stroke="#A3FAD8" stroke-width="0.5"/>
<path opacity="0.936709" d="M288.498 199.937C314.662 200.066 335.786 222.681 335.648 250.483C335.511 278.284 314.164 300.691 288 300.563C261.835 300.435 240.711 277.819 240.849 250.017C240.986 222.216 262.333 199.809 288.498 199.937Z" stroke="#A3FAD8" stroke-width="0.5"/>
<path opacity="0.949367" d="M288.405 200.062C314.849 200.14 336.239 222.662 336.157 250.391C336.074 278.12 314.551 300.516 288.107 300.438C261.662 300.36 240.271 277.838 240.354 250.109C240.436 222.38 261.96 199.984 288.405 200.062Z" stroke="#A3FAD8" stroke-width="0.5"/>
<path opacity="0.962025" d="M288.326 200.186C315.051 200.226 336.696 222.664 336.655 250.321C336.614 277.979 314.902 300.353 288.178 300.313C261.453 300.274 239.808 277.836 239.849 250.179C239.89 222.521 261.602 200.147 288.326 200.186Z" stroke="#A3FAD8" stroke-width="0.5"/>
<path opacity="0.974684" d="M288.272 200.311C315.277 200.325 337.166 222.689 337.153 250.274C337.139 277.859 315.227 300.202 288.223 300.189C261.218 300.176 239.328 277.811 239.342 250.226C239.356 222.64 261.268 200.298 288.272 200.311Z" stroke="#A3FAD8" stroke-width="0.5"/>
<path opacity="0.987342" d="M288.252 200.436C315.537 200.436 337.659 222.737 337.659 250.25C337.659 277.764 315.537 300.064 288.252 300.064C260.968 300.064 238.846 277.764 238.846 250.25C238.846 222.737 260.968 200.436 288.252 200.436Z" stroke="#A3FAD8" stroke-width="0.5"/>
<path d="M288.252 200.561C315.817 200.561 338.161 222.809 338.161 250.25C338.16 277.692 315.817 299.939 288.252 299.939C260.688 299.939 238.344 277.692 238.344 250.25C238.344 222.809 260.688 200.561 288.252 200.561Z" stroke="#A3FAD8" stroke-width="0.5"/>
</mask>
<g mask="url(#mask0_3279_3777)">
<path opacity="0.0126582" d="M337.699 216.958C338.07 217.504 338.151 218.269 337.901 219.271C337.651 220.272 337.079 221.474 336.199 222.854C334.441 225.611 331.487 229.024 327.56 232.867C319.707 240.551 307.999 249.918 294.297 259.145C280.595 268.371 267.504 275.701 257.418 280.097C252.373 282.295 248.091 283.754 244.867 284.352C243.254 284.651 241.92 284.732 240.894 284.59C239.867 284.448 239.184 284.089 238.813 283.543C238.442 282.996 238.362 282.232 238.612 281.23C238.861 280.229 239.433 279.026 240.312 277.646C242.07 274.889 245.024 271.476 248.952 267.633C256.804 259.95 268.512 250.583 282.214 241.356C295.916 232.13 309.007 224.799 319.093 220.403C324.138 218.205 328.42 216.746 331.644 216.148C333.258 215.849 334.592 215.768 335.618 215.91C336.645 216.052 337.328 216.412 337.699 216.958Z" stroke="#A3FAD8" stroke-width="0.5"/>
<path opacity="0.0253165" d="M337.112 216.327C337.513 216.9 337.621 217.694 337.405 218.723C337.189 219.753 336.654 220.987 335.815 222.4C334.136 225.226 331.271 228.72 327.434 232.649C319.764 240.504 308.25 250.065 294.711 259.466C281.173 268.867 268.183 276.32 258.129 280.772C253.1 282.999 248.817 284.469 245.574 285.06C243.951 285.356 242.603 285.43 241.558 285.276C240.513 285.122 239.802 284.747 239.4 284.174C238.999 283.601 238.89 282.806 239.107 281.777C239.323 280.747 239.858 279.513 240.698 278.099C242.376 275.273 245.242 271.779 249.078 267.85C256.748 259.995 268.261 250.434 281.8 241.034C295.339 231.633 308.329 224.179 318.383 219.728C323.412 217.501 327.695 216.031 330.939 215.439C332.561 215.143 333.909 215.07 334.954 215.224C335.999 215.378 336.71 215.754 337.112 216.327Z" stroke="#A3FAD8" stroke-width="0.5"/>
<path opacity="0.0379747" d="M336.505 215.692C336.938 216.29 337.076 217.113 336.894 218.17C336.713 219.227 336.217 220.493 335.418 221.941C333.821 224.835 331.046 228.407 327.304 232.421C319.822 240.446 308.509 250.201 295.138 259.777C281.768 269.353 268.882 276.931 258.861 281.442C253.848 283.698 249.564 285.182 246.3 285.768C244.668 286.062 243.305 286.128 242.241 285.963C241.177 285.798 240.437 285.406 240.004 284.808C239.572 284.209 239.435 283.387 239.616 282.33C239.798 281.273 240.293 280.007 241.092 278.56C242.688 275.666 245.464 272.093 249.206 268.079C256.688 260.054 268.001 250.3 281.372 240.723C294.742 231.147 307.628 223.569 317.649 219.059C322.662 216.802 326.946 215.319 330.209 214.732C331.842 214.438 333.205 214.372 334.27 214.537C335.333 214.702 336.073 215.093 336.505 215.692Z" stroke="#A3FAD8" stroke-width="0.5"/>
<path opacity="0.0506329" d="M335.881 215.055C336.346 215.678 336.513 216.528 336.368 217.612C336.223 218.697 335.765 219.992 335.009 221.473C333.497 224.434 330.816 228.083 327.171 232.182C319.882 240.375 308.776 250.322 295.577 260.075C282.379 269.828 269.6 277.531 259.613 282.104C254.617 284.391 250.332 285.888 247.048 286.472C245.405 286.764 244.027 286.824 242.942 286.649C241.858 286.473 241.09 286.067 240.625 285.444C240.161 284.821 239.993 283.971 240.138 282.888C240.284 281.803 240.742 280.507 241.498 279.027C243.01 276.066 245.691 272.417 249.336 268.318C256.625 260.125 267.731 250.178 280.93 240.425C294.128 230.672 306.907 222.969 316.894 218.396C321.89 216.109 326.175 214.612 329.459 214.028C331.101 213.736 332.479 213.675 333.564 213.85C334.648 214.026 335.417 214.432 335.881 215.055Z" stroke="#A3FAD8" stroke-width="0.5"/>
<path opacity="0.0632911" d="M335.247 214.417C335.744 215.063 335.944 215.941 335.836 217.051C335.727 218.162 335.31 219.487 334.598 221C333.172 224.026 330.587 227.752 327.041 231.933C319.951 240.293 309.057 250.431 296.036 260.36C283.016 270.289 270.347 278.12 260.394 282.757C255.415 285.076 251.128 286.591 247.823 287.173C246.17 287.464 244.776 287.52 243.671 287.334C242.566 287.149 241.768 286.728 241.271 286.082C240.774 285.436 240.574 284.559 240.682 283.45C240.791 282.338 241.207 281.013 241.92 279.5C243.346 276.475 245.931 272.748 249.477 268.567C256.567 260.207 267.461 250.069 280.481 240.14C293.502 230.211 306.171 222.38 316.124 217.743C321.103 215.424 325.39 213.909 328.695 213.327C330.348 213.036 331.741 212.981 332.847 213.166C333.951 213.351 334.75 213.771 335.247 214.417Z" stroke="#A3FAD8" stroke-width="0.5"/>
<path opacity="0.0759494" d="M334.587 213.78C335.117 214.449 335.351 215.35 335.28 216.485C335.21 217.623 334.834 218.977 334.166 220.522C332.829 223.611 330.343 227.412 326.899 231.675C320.014 240.199 309.337 250.526 296.499 260.631C283.661 270.737 271.106 278.698 261.187 283.401C256.226 285.754 251.938 287.286 248.61 287.868C246.947 288.159 245.536 288.21 244.409 288.016C243.283 287.823 242.456 287.388 241.925 286.72C241.395 286.052 241.16 285.149 241.231 284.014C241.301 282.877 241.677 281.522 242.345 279.978C243.682 276.889 246.168 273.087 249.612 268.824C256.497 260.301 267.174 249.974 280.012 239.869C292.849 229.763 305.405 221.802 315.324 217.098C320.285 214.746 324.574 213.214 327.901 212.632C329.564 212.341 330.975 212.289 332.103 212.483C333.228 212.677 334.056 213.112 334.587 213.78Z" stroke="#A3FAD8" stroke-width="0.5"/>
<path opacity="0.0886076" d="M333.915 213.144C335.046 214.524 334.983 216.868 333.729 220.04C332.484 223.191 330.098 227.065 326.76 231.409C320.084 240.093 309.63 250.608 296.98 260.889C284.329 271.17 271.889 279.262 262.007 284.035C257.064 286.422 252.774 287.972 249.424 288.556C246.051 289.144 243.733 288.736 242.602 287.356C241.47 285.976 241.533 283.633 242.787 280.46C244.033 277.31 246.417 273.435 249.755 269.092C256.43 260.408 266.884 249.893 279.535 239.611C292.186 229.33 304.626 221.238 314.508 216.466C319.451 214.079 323.742 212.528 327.092 211.944C330.465 211.356 332.783 211.764 333.915 213.144Z" stroke="#A3FAD8" stroke-width="0.5"/>
<path opacity="0.101266" d="M333.224 212.51C334.425 213.929 334.439 216.324 333.28 219.554C332.128 222.765 329.847 226.711 326.616 231.133C320.156 239.975 309.931 250.675 297.472 261.132C285.013 271.589 272.691 279.813 262.845 284.656C257.921 287.079 253.629 288.65 250.256 289.237C246.862 289.828 244.494 289.408 243.293 287.99C242.092 286.571 242.077 284.176 243.236 280.946C244.388 277.736 246.669 273.79 249.9 269.367C256.36 260.525 266.586 249.825 279.045 239.368C291.504 228.911 303.825 220.688 313.671 215.844C318.595 213.422 322.887 211.851 326.26 211.263C329.654 210.673 332.023 211.092 333.224 212.51Z" stroke="#A3FAD8" stroke-width="0.5"/>
<path opacity="0.113924" d="M332.514 211.88C333.786 213.334 333.88 215.78 332.818 219.066C331.762 222.334 329.587 226.35 326.466 230.85C320.226 239.846 310.236 250.729 297.973 261.361C285.711 271.992 273.51 280.348 263.702 285.264C258.796 287.723 254.502 289.316 251.105 289.908C247.69 290.503 245.269 290.074 243.998 288.62C242.726 287.165 242.633 284.72 243.694 281.434C244.75 278.166 246.925 274.15 250.046 269.65C256.286 260.654 266.276 249.771 278.539 239.14C290.802 228.508 303.003 220.153 312.811 215.236C317.716 212.777 322.011 211.184 325.407 210.592C328.822 209.997 331.242 210.426 332.514 211.88Z" stroke="#A3FAD8" stroke-width="0.5"/>
<path opacity="0.126582" d="M331.793 211.254C333.137 212.742 333.313 215.237 332.35 218.576C331.392 221.9 329.326 225.984 326.317 230.56C320.302 239.707 310.552 250.77 298.49 261.574C286.429 272.378 274.352 280.866 264.583 285.858C259.696 288.355 255.399 289.97 251.978 290.569C248.541 291.17 246.068 290.734 244.724 289.246C243.379 287.758 243.203 285.263 244.166 281.924C245.124 278.599 247.191 274.516 250.199 269.941C256.214 260.794 265.964 249.731 278.026 238.927C290.088 228.123 302.165 219.634 311.934 214.642C316.821 212.145 321.117 210.53 324.538 209.931C327.975 209.33 330.448 209.766 331.793 211.254Z" stroke="#A3FAD8" stroke-width="0.5"/>
<path opacity="0.139241" d="M331.047 210.634C332.466 212.154 332.726 214.695 331.865 218.086C331.006 221.464 329.051 225.613 326.158 230.262C320.373 239.556 310.868 250.795 299.011 261.771C287.154 272.747 275.204 281.368 265.474 286.437C260.607 288.972 256.308 290.612 252.862 291.219C249.402 291.828 246.876 291.385 245.457 289.865C244.038 288.346 243.779 285.805 244.64 282.415C245.499 279.036 247.454 274.887 250.347 270.238C256.132 260.945 265.637 249.705 277.494 238.729C289.351 227.753 301.301 219.132 311.031 214.063C315.898 211.528 320.197 209.888 323.643 209.282C327.102 208.673 329.628 209.115 331.047 210.634Z" stroke="#A3FAD8" stroke-width="0.5"/>
<path opacity="0.151899" d="M330.294 210.021C331.788 211.57 332.135 214.155 331.376 217.595C330.62 221.025 328.779 225.238 326.003 229.958C320.452 239.394 311.196 250.807 299.549 261.952C287.902 273.097 276.082 281.853 266.391 287C261.544 289.575 257.243 291.239 253.771 291.856C250.288 292.474 247.708 292.027 246.213 290.478C244.718 288.93 244.372 286.345 245.13 282.905C245.887 279.475 247.728 275.262 250.504 270.542C256.054 261.106 265.31 249.694 276.957 238.548C288.604 227.403 300.425 218.647 310.116 213.5C314.962 210.925 319.263 209.261 322.735 208.644C326.219 208.026 328.799 208.473 330.294 210.021Z" stroke="#A3FAD8" stroke-width="0.5"/>
<path opacity="0.164557" d="M329.528 209.416C331.099 210.991 331.535 213.617 330.881 217.105C330.229 220.584 328.502 224.859 325.845 229.648C320.534 239.222 311.535 250.805 300.101 262.117C288.667 273.43 276.978 282.318 267.328 287.545C262.501 290.16 258.198 291.852 254.7 292.48C251.192 293.109 248.558 292.659 246.986 291.084C245.414 289.509 244.978 286.883 245.632 283.395C246.284 279.916 248.01 275.641 250.666 270.853C255.977 261.278 264.978 249.696 276.412 238.383C287.846 227.071 299.534 218.182 309.184 212.955C314.011 210.34 318.315 208.648 321.813 208.02C325.321 207.391 327.956 207.842 329.528 209.416Z" stroke="#A3FAD8" stroke-width="0.5"/>
<path opacity="0.177215" d="M328.748 208.82C330.398 210.419 330.925 213.084 330.378 216.618C329.831 220.144 328.222 224.476 325.688 229.332C320.62 239.04 311.879 250.788 300.663 262.265C289.447 273.742 277.892 282.763 268.284 288.073C263.478 290.728 259.172 292.448 255.647 293.089C252.114 293.73 249.424 293.279 247.774 291.68C246.123 290.082 245.597 287.417 246.144 283.883C246.691 280.357 248.299 276.024 250.833 271.168C255.901 261.46 264.641 249.713 275.857 238.235C287.074 226.758 298.629 217.737 308.237 212.427C313.043 209.772 317.349 208.052 320.875 207.412C324.408 206.77 327.098 207.221 328.748 208.82Z" stroke="#A3FAD8" stroke-width="0.5"/>
<path opacity="0.189873" d="M327.942 208.233C329.673 209.853 330.293 212.555 329.853 216.132C329.414 219.703 327.925 224.091 325.515 229.011C320.696 238.848 312.219 250.756 301.224 262.396C290.229 274.036 278.81 283.189 269.244 288.581C264.46 291.278 260.151 293.027 256.599 293.681C253.04 294.337 250.293 293.887 248.562 292.267C246.832 290.646 246.213 287.945 246.652 284.368C247.091 280.797 248.58 276.409 250.99 271.489C255.81 261.652 264.286 249.744 275.282 238.104C286.277 226.464 297.695 217.311 307.261 211.919C312.046 209.222 316.354 207.473 319.907 206.819C323.466 206.163 326.212 206.613 327.942 208.233Z" stroke="#A3FAD8" stroke-width="0.5"/>
<path opacity="0.202532" d="M327.131 207.657C328.943 209.296 329.657 212.031 329.328 215.649C328.998 219.261 327.631 223.704 325.347 228.686C320.779 238.646 312.57 250.711 301.8 262.51C291.03 274.309 279.75 283.594 270.226 289.07C265.463 291.809 261.152 293.588 257.572 294.258C253.986 294.93 251.183 294.482 249.372 292.842C247.56 291.203 246.846 288.468 247.176 284.851C247.505 281.239 248.872 276.796 251.157 271.814C255.724 261.854 263.932 249.79 274.703 237.991C285.473 226.192 296.753 216.906 306.277 211.43C311.04 208.691 315.351 206.912 318.932 206.242C322.517 205.57 325.319 206.018 327.131 207.657Z" stroke="#A3FAD8" stroke-width="0.5"/>
<path opacity="0.21519" d="M326.313 207.093C328.207 208.749 329.018 211.515 328.799 215.171C328.581 218.822 327.337 223.316 325.18 228.357C320.868 238.436 312.933 250.651 302.391 262.606C291.849 274.561 280.71 283.976 271.23 289.537C266.489 292.319 262.174 294.129 258.566 294.817C254.953 295.505 252.094 295.063 250.2 293.408C248.305 291.752 247.494 288.985 247.713 285.33C247.931 281.678 249.175 277.184 251.332 272.144C255.644 262.065 263.579 249.849 274.121 237.894C284.663 225.94 295.802 216.524 305.282 210.963C310.023 208.182 314.337 206.372 317.946 205.684C321.559 204.995 324.419 205.438 326.313 207.093Z" stroke="#A3FAD8" stroke-width="0.5"/>
<path opacity="0.227848" d="M325.475 206.541C327.453 208.211 328.363 211.005 328.257 214.697C328.151 218.385 327.032 222.927 325.005 228.024C320.953 238.216 313.292 250.577 302.982 262.684C292.671 274.792 281.676 284.337 272.24 289.984C267.52 292.809 263.203 294.651 259.566 295.358C255.926 296.065 253.008 295.629 251.03 293.959C249.053 292.29 248.143 289.495 248.249 285.804C248.354 282.116 249.474 277.574 251.501 272.477C255.553 262.285 263.212 249.924 273.523 237.816C283.834 225.709 294.83 216.164 304.266 210.516C308.985 207.692 313.302 205.85 316.94 205.143C320.58 204.436 323.498 204.872 325.475 206.541Z" stroke="#A3FAD8" stroke-width="0.5"/>
<path opacity="0.240506" d="M324.637 206.003C326.7 207.683 327.709 210.503 327.718 214.227C327.726 217.949 326.733 222.536 324.838 227.687C321.048 237.986 313.668 250.489 303.592 262.745C293.516 275.001 282.664 284.674 273.272 290.408C268.575 293.276 264.256 295.151 260.589 295.879C256.921 296.606 253.945 296.178 251.883 294.497C249.821 292.817 248.811 289.997 248.803 286.273C248.794 282.551 249.787 277.964 251.682 272.813C255.473 262.514 262.852 250.011 272.928 237.755C283.005 225.499 293.856 215.826 303.248 210.092C307.945 207.224 312.265 205.349 315.931 204.622C319.599 203.894 322.575 204.322 324.637 206.003Z" stroke="#A3FAD8" stroke-width="0.5"/>
<path opacity="0.253165" d="M323.779 205.478C325.927 207.167 327.038 210.01 327.162 213.764C327.286 217.517 326.422 222.146 324.659 227.348C321.134 237.748 314.037 250.386 304.198 262.787C294.359 275.188 283.654 284.988 274.308 290.81C269.633 293.722 265.311 295.631 261.615 296.38C257.918 297.129 254.883 296.711 252.735 295.022C250.587 293.332 249.476 290.49 249.352 286.735C249.228 282.982 250.093 278.354 251.856 273.152C255.381 262.752 262.477 250.114 272.316 237.713C282.155 225.312 292.861 215.512 302.207 209.69C306.881 206.778 311.204 204.868 314.899 204.12C318.597 203.37 321.631 203.789 323.779 205.478Z" stroke="#A3FAD8" stroke-width="0.5"/>
<path opacity="0.265823" d="M322.917 204.969C325.151 206.664 326.364 209.527 326.605 213.309C326.845 217.09 326.11 221.759 324.482 227.007C321.225 237.503 314.414 250.27 304.815 262.812C295.216 275.354 284.659 285.279 275.358 291.189C270.707 294.144 266.381 296.089 262.656 296.861C258.929 297.633 255.835 297.227 253.601 295.532C251.367 293.836 250.152 290.974 249.911 287.191C249.671 283.41 250.406 278.742 252.035 273.493C255.291 262.997 262.102 250.23 271.702 237.688C281.301 225.147 291.858 215.222 301.158 209.312C305.809 206.356 310.135 204.412 313.861 203.64C317.587 202.868 320.682 203.274 322.917 204.969Z" stroke="#A3FAD8" stroke-width="0.5"/>
<path opacity="0.278481" d="M322.039 204.474C324.361 206.173 325.678 209.053 326.036 212.859C326.395 216.666 325.79 221.37 324.297 226.663C321.311 237.249 314.79 250.14 305.432 262.818C296.075 275.497 285.667 285.544 276.412 291.543C271.784 294.543 267.456 296.522 263.7 297.319C259.944 298.116 256.79 297.725 254.469 296.026C252.147 294.327 250.829 291.447 250.471 287.64C250.113 283.834 250.717 279.13 252.21 273.836C255.196 263.251 261.718 250.36 271.076 237.682C280.433 225.004 290.841 214.956 300.095 208.957C304.723 205.957 309.052 203.977 312.807 203.181C316.563 202.384 319.718 202.776 322.039 204.474Z" stroke="#A3FAD8" stroke-width="0.5"/>
<path opacity="0.291139" d="M321.163 203.996C323.573 205.695 324.995 208.589 325.472 212.418C325.95 216.247 325.476 220.984 324.12 226.319C321.408 236.987 315.177 249.996 306.064 262.807C296.95 275.617 286.693 285.785 277.484 291.873C272.88 294.917 268.549 296.933 264.763 297.756C260.977 298.578 257.762 298.203 255.353 296.503C252.943 294.804 251.521 291.91 251.044 288.082C250.567 284.253 251.04 279.516 252.396 274.181C255.109 263.512 261.34 250.504 270.453 237.694C279.566 224.883 289.823 214.714 299.032 208.626C303.637 205.582 307.968 203.566 311.754 202.744C315.54 201.921 318.754 202.297 321.163 203.996Z" stroke="#A3FAD8" stroke-width="0.5"/>
<path opacity="0.303797" d="M320.273 203.535C322.772 205.232 324.3 208.137 324.896 211.985C325.493 215.833 325.153 220.6 323.935 225.974C321.497 236.719 315.559 249.839 306.692 262.776C297.824 275.714 287.719 286.002 278.557 292.179C273.976 295.268 269.641 297.321 265.824 298.171C262.008 299.021 258.734 298.663 256.235 296.966C253.737 295.268 252.209 292.363 251.612 288.515C251.016 284.667 251.356 279.899 252.575 274.526C255.012 263.78 260.95 250.661 269.818 237.723C278.685 224.785 288.791 214.497 297.952 208.32C302.533 205.231 306.868 203.179 310.685 202.329C314.501 201.479 317.775 201.837 320.273 203.535Z" stroke="#A3FAD8" stroke-width="0.5"/>
<path opacity="0.316456" d="M319.382 203.09C321.97 204.783 323.606 207.696 324.323 211.56C325.04 215.425 324.833 220.219 323.752 225.628C321.591 236.444 315.949 249.668 307.329 262.729C298.708 275.789 288.755 286.194 279.641 292.46C275.083 295.594 270.745 297.685 266.898 298.563C263.051 299.441 259.716 299.102 257.129 297.409C254.541 295.716 252.906 292.803 252.189 288.94C251.472 285.075 251.679 280.281 252.759 274.872C254.92 264.056 260.563 250.831 269.183 237.771C277.803 224.711 287.756 214.307 296.871 208.04C301.428 204.906 305.767 202.814 309.614 201.936C313.461 201.058 316.795 201.397 319.382 203.09Z" stroke="#A3FAD8" stroke-width="0.5"/>
<path opacity="0.329114" d="M318.484 202.663C321.161 204.349 322.904 207.268 323.742 211.145C324.58 215.023 324.507 219.841 323.566 225.282C321.683 236.162 316.337 249.485 307.965 262.663C299.594 275.841 289.794 286.36 280.726 292.716C276.192 295.894 271.851 298.024 267.973 298.932C264.095 299.84 260.7 299.522 258.023 297.836C255.346 296.15 253.602 293.232 252.764 289.355C251.926 285.476 252 280.659 252.941 275.218C254.824 264.337 260.17 251.014 268.541 237.836C276.913 224.658 286.713 214.14 295.78 207.784C300.314 204.606 304.655 202.476 308.534 201.568C312.411 200.66 315.807 200.978 318.484 202.663Z" stroke="#A3FAD8" stroke-width="0.5"/>
<path opacity="0.341772" d="M317.584 202.255C320.351 203.931 322.203 206.852 323.162 210.74C324.122 214.629 324.184 219.467 323.382 224.936C321.779 235.875 316.729 249.289 308.607 262.58C300.485 275.871 290.839 286.501 281.819 292.947C277.309 296.17 272.964 298.338 269.054 299.277C265.146 300.216 261.689 299.921 258.922 298.245C256.155 296.569 254.304 293.647 253.344 289.76C252.385 285.871 252.323 281.033 253.125 275.564C254.728 264.626 259.777 251.21 267.899 237.92C276.022 224.629 285.668 213.999 294.688 207.553C299.198 204.331 303.542 202.161 307.452 201.222C311.36 200.284 314.817 200.579 317.584 202.255Z" stroke="#A3FAD8" stroke-width="0.5"/>
<path opacity="0.35443" d="M316.686 201.864C319.543 203.528 321.504 206.45 322.585 210.344C323.666 214.241 323.863 219.096 323.201 224.592C321.878 235.581 317.128 249.082 309.256 262.48C301.384 275.878 291.892 286.617 282.919 293.152C278.432 296.419 274.085 298.628 270.143 299.599C266.204 300.569 262.685 300.3 259.828 298.636C256.971 296.972 255.01 294.05 253.929 290.156C252.848 286.259 252.652 281.404 253.314 275.909C254.637 264.919 259.387 251.418 267.259 238.02C275.132 224.622 284.623 213.883 293.596 207.349C298.083 204.081 302.429 201.872 306.371 200.901C310.31 199.931 313.829 200.2 316.686 201.864Z" stroke="#A3FAD8" stroke-width="0.5"/>
<path opacity="0.367089" d="M315.786 201.492C318.734 203.142 320.804 206.06 322.008 209.959C323.212 213.86 323.543 218.73 323.022 224.248C321.978 235.282 317.526 248.862 309.905 262.363C302.283 275.863 292.946 286.709 284.021 293.332C279.558 296.644 275.207 298.893 271.234 299.897C267.263 300.901 263.683 300.657 260.735 299.007C257.788 297.358 255.718 294.44 254.515 290.541C253.311 286.64 252.979 281.77 253.501 276.253C254.544 265.218 258.995 251.639 266.617 238.138C274.238 224.637 283.576 213.792 292.502 207.168C296.965 203.856 301.315 201.607 305.288 200.603C309.26 199.599 312.839 199.843 315.786 201.492Z" stroke="#A3FAD8" stroke-width="0.5"/>
<path opacity="0.379747" d="M314.88 201.139C320.957 204.405 323.599 212.807 322.835 223.904C322.072 234.977 317.92 248.63 310.549 262.228C303.177 275.826 293.994 286.775 285.115 293.487C276.217 300.213 267.713 302.626 261.636 299.361C255.559 296.095 252.917 287.693 253.681 276.595C254.443 265.522 258.595 251.87 265.966 238.272C273.338 224.673 282.522 213.725 291.4 207.013C300.298 200.286 308.803 197.874 314.88 201.139Z" stroke="#A3FAD8" stroke-width="0.5"/>
<path opacity="0.392405" d="M313.969 200.805C320.227 204.032 323.128 212.437 322.645 223.565C322.163 234.67 318.309 248.387 311.188 262.077C304.067 275.767 295.038 286.817 286.207 293.616C277.357 300.43 268.789 302.921 262.531 299.695C256.273 296.468 253.373 288.063 253.856 276.935C254.338 265.83 258.191 252.112 265.312 238.422C272.433 224.732 281.462 213.684 290.294 206.884C299.143 200.07 307.712 197.579 313.969 200.805Z" stroke="#A3FAD8" stroke-width="0.5"/>
<path opacity="0.405063" d="M313.074 200.49C319.512 203.673 322.672 212.075 322.47 223.226C322.268 234.357 318.713 248.134 311.842 261.911C304.971 275.688 296.094 286.834 287.309 293.721C278.508 300.621 269.876 303.193 263.437 300.009C256.999 296.826 253.84 288.425 254.042 277.274C254.244 266.143 257.799 252.366 264.67 238.589C271.542 224.812 280.417 213.665 289.202 206.778C298.003 199.878 306.636 197.307 313.074 200.49Z" stroke="#A3FAD8" stroke-width="0.5"/>
<path opacity="0.417722" d="M312.171 200.194C318.789 203.33 322.207 211.722 322.285 222.891C322.362 234.041 319.105 247.871 312.482 261.729C305.86 275.587 297.137 286.828 288.398 293.802C279.645 300.788 270.949 303.441 264.33 300.306C257.711 297.17 254.293 288.779 254.216 277.609C254.138 266.459 257.396 252.629 264.018 238.771C270.641 224.913 279.363 213.672 288.102 206.698C296.856 199.712 305.552 197.059 312.171 200.194Z" stroke="#A3FAD8" stroke-width="0.5"/>
<path opacity="0.43038" d="M311.286 199.918C318.085 203.001 321.761 211.377 322.117 222.558C322.473 233.722 319.512 247.598 313.137 261.532C306.762 275.466 298.191 286.798 289.498 293.858C280.792 300.929 272.032 303.665 265.233 300.582C258.434 297.499 254.758 289.123 254.402 277.942C254.046 266.778 257.007 252.902 263.381 238.968C269.756 225.034 278.327 213.702 287.02 206.642C295.727 199.571 304.487 196.834 311.286 199.918Z" stroke="#A3FAD8" stroke-width="0.5"/>
<path opacity="0.443038" d="M310.391 199.66C317.37 202.688 321.303 211.042 321.937 222.229C322.57 233.4 319.904 247.316 313.775 261.321C307.647 275.326 299.226 286.746 290.578 293.891C281.918 301.046 273.095 303.867 266.116 300.84C259.138 297.813 255.204 289.458 254.57 278.272C253.937 267.101 256.603 253.185 262.732 239.18C268.86 225.175 277.281 213.755 285.929 206.61C294.589 199.455 303.412 196.633 310.391 199.66Z" stroke="#A3FAD8" stroke-width="0.5"/>
<path opacity="0.455696" d="M309.514 199.422C316.672 202.389 320.86 210.716 321.77 221.903C322.679 233.075 320.306 247.025 314.422 261.095C308.538 275.166 300.267 286.67 291.664 293.899C283.049 301.138 274.162 304.046 267.004 301.079C259.847 298.112 255.658 289.784 254.748 278.597C253.839 267.424 256.212 253.475 262.096 239.405C267.98 225.335 276.251 213.829 284.854 206.6C293.469 199.362 302.356 196.455 309.514 199.422Z" stroke="#A3FAD8" stroke-width="0.5"/>
<path opacity="0.468354" d="M308.629 199.202C315.966 202.105 320.41 210.4 321.594 221.581C322.776 232.749 320.694 246.726 315.053 260.857C309.412 274.987 301.289 286.573 292.728 293.886C284.158 301.207 275.207 304.201 267.871 301.298C260.535 298.395 256.091 290.1 254.907 278.919C253.725 267.751 255.807 253.774 261.448 239.643C267.089 225.513 275.212 213.927 283.773 206.614C292.343 199.293 301.293 196.299 308.629 199.202Z" stroke="#A3FAD8" stroke-width="0.5"/>
<path opacity="0.481013" d="M307.766 199.001C315.28 201.836 319.977 210.094 321.433 221.263C322.887 232.421 321.093 246.419 315.692 260.605C310.291 274.791 302.315 286.457 293.797 293.851C285.27 301.254 276.255 304.336 268.742 301.5C261.228 298.664 256.53 290.407 255.074 279.237C253.62 268.079 255.415 254.08 260.816 239.894C266.217 225.709 274.193 214.044 282.711 206.649C291.237 199.247 300.252 196.165 307.766 199.001Z" stroke="#A3FAD8" stroke-width="0.5"/>
<path opacity="0.493671" d="M306.915 198.818C314.605 201.583 319.554 209.797 321.279 220.95C323.002 232.093 321.495 246.107 316.331 260.342C311.168 274.578 303.335 286.318 294.859 293.793C286.375 301.276 277.297 304.447 269.606 301.683C261.916 298.918 256.967 290.703 255.241 279.55C253.518 268.407 255.026 254.393 260.19 240.158C265.353 225.922 273.185 214.182 281.661 206.706C290.145 199.224 299.224 196.053 306.915 198.818Z" stroke="#A3FAD8" stroke-width="0.5"/>
<path opacity="0.506329" d="M306.063 198.652C313.929 201.343 319.128 209.511 321.12 220.642C323.11 231.764 321.885 245.788 316.956 260.068C312.028 274.349 304.338 286.161 295.902 293.716C287.459 301.277 278.316 304.538 270.45 301.847C262.584 299.156 257.385 290.989 255.393 279.858C253.403 268.736 254.629 254.713 259.557 240.432C264.485 226.151 272.175 214.34 280.611 206.784C289.054 199.223 298.197 195.962 306.063 198.652Z" stroke="#A3FAD8" stroke-width="0.5"/>
<path opacity="0.518987" d="M305.227 198.505C313.268 201.119 318.715 209.234 320.971 220.339C323.225 231.435 322.278 245.463 317.581 259.784C312.884 274.105 305.335 285.985 296.938 293.619C288.534 301.258 279.327 304.609 271.287 301.995C263.246 299.381 257.8 291.266 255.544 280.161C253.289 269.065 254.236 255.038 258.933 240.717C263.629 226.396 271.18 214.515 279.577 206.882C287.98 199.243 297.187 195.891 305.227 198.505Z" stroke="#A3FAD8" stroke-width="0.5"/>
<path opacity="0.531646" d="M304.399 198.375C312.613 200.91 318.304 208.968 320.821 220.041C323.336 231.107 322.666 245.133 318.198 259.489C313.729 273.845 306.316 285.791 297.956 293.502C289.591 301.217 280.32 304.659 272.106 302.125C263.893 299.591 258.2 291.532 255.683 280.459C253.168 269.393 253.839 255.367 258.308 241.011C262.776 226.654 270.189 214.709 278.548 206.998C286.913 199.283 296.185 195.841 304.399 198.375Z" stroke="#A3FAD8" stroke-width="0.5"/>
<path opacity="0.544304" d="M303.589 198.262C311.974 200.714 317.909 208.712 320.684 219.749C323.457 230.78 323.058 244.8 318.814 259.187C314.57 273.573 307.292 285.581 298.969 293.367C290.64 301.158 281.304 304.69 272.918 302.238C264.532 299.786 258.598 291.788 255.823 280.751C253.05 269.721 253.449 255.701 257.693 241.314C261.937 226.927 269.215 214.92 277.539 207.133C285.867 199.343 295.203 195.81 303.589 198.262Z" stroke="#A3FAD8" stroke-width="0.5"/>
<path opacity="0.556962" d="M302.797 198.165C311.354 200.532 317.528 208.465 320.557 219.462C323.585 230.454 323.454 244.462 319.43 258.875C315.407 273.288 308.261 285.354 299.971 293.214C291.677 301.078 282.277 304.703 273.721 302.335C265.164 299.968 258.99 292.034 255.961 281.037C252.933 270.046 253.064 256.038 257.087 241.625C261.111 227.212 268.258 215.145 276.547 207.285C284.841 199.421 294.241 195.797 302.797 198.165Z" stroke="#A3FAD8" stroke-width="0.5"/>
<path opacity="0.56962" d="M302.008 198.084C310.734 200.365 317.146 208.23 320.426 219.182C323.704 230.13 323.836 244.122 320.03 258.557C316.223 272.992 309.204 285.114 300.947 293.046C292.687 300.982 283.221 304.697 274.496 302.416C265.77 300.135 259.358 292.269 256.078 281.317C252.8 270.369 252.668 256.378 256.475 241.943C260.282 227.508 267.299 215.386 275.556 207.453C283.817 199.518 293.283 195.803 302.008 198.084Z" stroke="#A3FAD8" stroke-width="0.5"/>
<path opacity="0.582278" d="M301.246 198.018C310.14 200.211 316.786 208.005 320.313 218.909C323.838 229.809 324.229 243.78 320.634 258.233C317.04 272.685 310.147 284.859 301.92 292.862C293.691 300.869 284.159 304.674 275.266 302.481C266.373 300.289 259.726 292.495 256.199 281.591C252.675 270.69 252.284 256.72 255.878 242.268C259.472 227.816 266.366 215.641 274.592 207.637C282.822 199.631 292.353 195.826 301.246 198.018Z" stroke="#A3FAD8" stroke-width="0.5"/>
<path opacity="0.594937" d="M300.494 197.967C309.553 200.07 316.431 207.789 320.201 218.642C323.968 229.491 324.614 243.437 321.227 257.902C317.84 272.368 311.068 284.593 302.87 292.665C294.67 300.74 285.072 304.635 276.012 302.532C266.953 300.429 260.075 292.711 256.306 281.858C252.538 271.009 251.893 257.063 255.28 242.597C258.666 228.131 265.439 215.908 273.636 207.835C281.837 199.761 291.434 195.865 300.494 197.967Z" stroke="#A3FAD8" stroke-width="0.5"/>
<path opacity="0.607595" d="M299.764 197.931C308.988 199.942 316.094 207.584 320.102 218.381C324.109 229.176 325.003 243.093 321.819 257.569C318.635 272.044 311.98 284.315 303.809 292.454C295.635 300.596 285.971 304.581 276.747 302.57C267.522 300.558 260.416 292.917 256.408 282.119C252.401 271.324 251.507 257.407 254.691 242.932C257.875 228.456 264.53 216.185 272.701 208.046C280.875 199.904 290.539 195.919 299.764 197.931Z" stroke="#A3FAD8" stroke-width="0.5"/>
<path opacity="0.620253" d="M299.051 197.907C308.439 199.826 315.77 207.389 320.012 218.128C324.253 228.866 325.391 242.75 322.405 257.231C319.419 271.712 312.878 284.025 304.731 292.23C296.581 300.437 286.85 304.512 277.462 302.593C268.075 300.674 260.744 293.111 256.502 282.371C252.26 271.634 251.122 257.75 254.108 243.269C257.095 228.788 263.635 216.474 271.783 208.269C279.932 200.062 289.663 195.988 299.051 197.907Z" stroke="#A3FAD8" stroke-width="0.5"/>
<path opacity="0.632911" d="M298.356 197.897C307.906 199.723 315.459 207.203 319.931 217.883C324.402 228.56 325.779 242.408 322.986 256.891C320.192 271.374 313.76 283.728 305.635 291.997C297.507 300.267 287.708 304.429 278.159 302.603C268.609 300.777 261.057 293.296 256.585 282.618C252.113 271.94 250.736 258.093 253.53 243.61C256.324 229.126 262.755 216.772 270.881 208.503C279.009 200.234 288.807 196.071 298.356 197.897Z" stroke="#A3FAD8" stroke-width="0.5"/>
<path opacity="0.64557" d="M297.677 197.899C307.386 199.632 315.157 207.029 319.855 217.645C324.552 228.259 326.161 242.067 323.555 256.549C320.948 271.031 314.622 283.423 306.516 291.753C298.408 300.084 288.54 304.334 278.831 302.601C269.121 300.869 261.349 293.472 256.652 282.855C251.955 272.241 250.345 258.433 252.952 243.951C255.559 229.47 261.884 217.078 269.991 208.748C278.099 200.416 287.967 196.167 297.677 197.899Z" stroke="#A3FAD8" stroke-width="0.5"/>
<path opacity="0.658228" d="M297.018 197.913C306.887 199.552 314.872 206.864 319.791 217.414C324.709 227.964 326.546 241.729 324.121 256.206C321.696 270.684 315.471 283.11 307.381 291.499C299.289 299.89 289.352 304.226 279.484 302.587C269.615 300.948 261.63 293.637 256.711 283.086C251.793 272.536 249.956 258.771 252.381 244.294C254.806 229.816 261.031 217.39 269.121 209.001C277.213 200.61 287.149 196.274 297.018 197.913Z" stroke="#A3FAD8" stroke-width="0.5"/>
<path opacity="0.670886" d="M296.385 197.937C306.411 199.482 314.608 206.708 319.743 217.192C324.877 227.675 326.936 241.394 324.687 255.864C322.437 270.333 316.309 282.792 308.232 291.239C300.155 299.687 290.147 304.108 280.121 302.563C270.095 301.018 261.898 293.792 256.763 283.308C251.629 272.825 249.571 259.105 251.82 244.635C254.069 230.166 260.198 217.708 268.274 209.261C276.352 200.813 286.359 196.393 296.385 197.937Z" stroke="#A3FAD8" stroke-width="0.5"/>
<path opacity="0.683544" d="M295.779 197.973C305.96 199.424 314.366 206.562 319.712 216.977C325.057 227.392 327.331 241.065 325.252 255.524C323.172 269.983 317.136 282.47 309.07 290.973C301.003 299.476 290.924 303.978 280.742 302.527C270.561 301.075 262.156 293.938 256.81 283.523C251.465 273.108 249.19 259.436 251.269 244.977C253.349 230.518 259.386 218.03 267.452 209.527C275.519 201.024 285.597 196.521 295.779 197.973Z" stroke="#A3FAD8" stroke-width="0.5"/>
<path opacity="0.696203" d="M295.183 198.018C305.519 199.376 314.129 206.427 319.681 216.772C325.233 227.117 327.717 240.739 325.802 255.185C323.886 269.631 317.936 282.145 309.878 290.701C301.819 299.257 291.667 303.841 281.33 302.482C270.995 301.123 262.386 294.073 256.833 283.728C251.281 273.383 248.797 259.761 250.712 245.315C252.628 230.869 258.578 218.355 266.636 209.799C274.695 201.243 284.847 196.659 295.183 198.018Z" stroke="#A3FAD8" stroke-width="0.5"/>
<path opacity="0.708861" d="M294.609 198.072C305.099 199.338 313.908 206.301 319.662 216.575C325.416 226.849 328.104 240.42 326.346 254.85C324.588 269.28 318.72 281.818 310.666 290.424C302.612 299.031 292.386 303.695 281.897 302.428C271.408 301.161 262.598 294.199 256.844 283.925C251.09 273.651 248.403 260.08 250.161 245.65C251.919 231.22 257.786 218.682 265.84 210.075C273.895 201.469 284.12 196.805 294.609 198.072Z" stroke="#A3FAD8" stroke-width="0.5"/>
<path opacity="0.721519" d="M294.062 198.134C304.703 199.31 313.71 206.184 319.661 216.387C325.611 226.59 328.496 240.107 326.89 254.519C325.284 268.931 319.492 281.49 311.439 290.145C303.386 298.801 293.085 303.541 282.444 302.366C271.803 301.19 262.797 294.316 256.847 284.113C250.896 273.91 248.011 260.393 249.617 245.981C251.224 231.569 257.015 219.01 265.068 210.355C273.121 201.699 283.422 196.958 294.062 198.134Z" stroke="#A3FAD8" stroke-width="0.5"/>
<path opacity="0.734177" d="M293.542 198.204C304.334 199.291 313.533 206.077 319.675 216.208C325.818 226.339 328.895 239.802 327.433 254.194C325.972 268.585 320.251 281.163 312.196 289.865C304.141 298.566 293.763 303.382 282.972 302.296C272.181 301.21 262.981 294.423 256.839 284.292C250.696 274.161 247.621 260.698 249.082 246.307C250.544 231.915 256.263 219.338 264.319 210.636C272.373 201.934 282.751 197.118 293.542 198.204Z" stroke="#A3FAD8" stroke-width="0.5"/>
<path opacity="0.746835" d="M293.037 198.282C303.978 199.28 313.367 205.98 319.696 216.039C326.026 226.098 329.286 239.505 327.963 253.874C326.64 268.244 320.986 280.837 312.925 289.582C304.865 298.328 294.409 303.216 283.468 302.218C272.527 301.219 263.139 294.52 256.81 284.461C250.481 274.402 247.22 260.995 248.543 246.626C249.866 232.257 255.52 219.663 263.581 210.917C271.641 202.172 282.097 197.283 293.037 198.282Z" stroke="#A3FAD8" stroke-width="0.5"/>
<path opacity="0.759494" d="M292.567 198.366C314.737 200.19 330.885 224.845 328.5 253.562C326.116 282.279 306.121 303.959 283.952 302.135C261.782 300.31 245.634 275.655 248.019 246.938C250.403 218.221 270.398 196.541 292.567 198.366Z" stroke="#A3FAD8" stroke-width="0.5"/>
<path opacity="0.772152" d="M292.11 198.456C314.573 200.113 331.156 224.594 329.022 253.258C326.889 281.922 306.862 303.701 284.399 302.044C261.935 300.386 245.353 275.905 247.486 247.242C249.62 218.578 269.646 196.798 292.11 198.456Z" stroke="#A3FAD8" stroke-width="0.5"/>
<path opacity="0.78481" d="M291.679 198.551C314.435 200.047 331.439 224.356 329.543 252.963C327.646 281.571 307.58 303.444 284.825 301.949C262.069 300.454 245.064 276.144 246.96 247.537C248.857 218.929 268.924 197.056 291.679 198.551Z" stroke="#A3FAD8" stroke-width="0.5"/>
<path opacity="0.797468" d="M291.277 198.651C314.323 199.99 331.738 224.13 330.065 252.679C328.392 281.227 308.275 303.187 285.23 301.849C262.184 300.51 244.768 276.37 246.441 247.821C248.114 219.272 268.231 197.312 291.277 198.651Z" stroke="#A3FAD8" stroke-width="0.5"/>
<path opacity="0.810127" d="M290.902 198.755C314.237 199.944 332.05 223.918 330.587 252.405C329.124 280.893 308.947 302.933 285.612 301.745C262.278 300.556 244.465 276.582 245.928 248.095C247.392 219.608 267.568 197.568 290.902 198.755Z" stroke="#A3FAD8" stroke-width="0.5"/>
<path opacity="0.822785" d="M290.545 198.863C314.167 199.908 332.365 223.719 331.098 252.144C329.83 280.568 309.584 302.68 285.962 301.636C262.341 300.592 244.142 276.78 245.41 248.356C246.677 219.932 266.923 197.819 290.545 198.863Z" stroke="#A3FAD8" stroke-width="0.5"/>
<path opacity="0.835443" d="M290.213 198.975C314.12 199.882 332.691 223.536 331.605 251.895C330.52 280.254 310.195 302.432 286.287 301.525C262.38 300.618 243.808 276.964 244.893 248.605C245.979 220.246 266.305 198.068 290.213 198.975Z" stroke="#A3FAD8" stroke-width="0.5"/>
<path opacity="0.848101" d="M289.913 199.089C314.105 199.867 333.038 223.368 332.12 251.66C331.202 279.953 310.786 302.188 286.594 301.41C262.402 300.632 243.469 277.132 244.387 248.839C245.305 220.547 265.721 198.312 289.913 199.089Z" stroke="#A3FAD8" stroke-width="0.5"/>
<path opacity="0.860759" d="M289.631 199.206C314.107 199.863 333.388 223.216 332.624 251.441C331.86 279.665 311.344 301.95 286.868 301.294C262.392 300.637 243.111 277.284 243.875 249.059C244.639 220.835 265.155 198.549 289.631 199.206Z" stroke="#A3FAD8" stroke-width="0.5"/>
<path opacity="0.873418" d="M289.383 199.325C314.142 199.869 333.76 223.081 333.136 251.236C332.511 279.392 311.883 301.72 287.125 301.176C262.366 300.631 242.748 277.419 243.372 249.263C243.997 221.108 264.625 198.781 289.383 199.325Z" stroke="#A3FAD8" stroke-width="0.5"/>
<path opacity="0.886076" d="M289.156 199.445C314.197 199.886 334.14 222.963 333.641 251.049C333.143 279.134 312.393 301.496 287.352 301.055C262.311 300.614 242.369 277.536 242.867 249.45C243.366 221.365 264.116 199.004 289.156 199.445Z" stroke="#A3FAD8" stroke-width="0.5"/>
<path opacity="0.898734" d="M288.96 199.567C314.283 199.914 334.538 222.864 334.151 250.88C333.763 278.895 312.881 301.28 287.559 300.933C262.237 300.586 241.981 277.637 242.368 249.622C242.756 221.606 263.638 199.22 288.96 199.567Z" stroke="#A3FAD8" stroke-width="0.5"/>
<path opacity="0.911392" d="M288.78 199.69C314.383 199.953 334.939 222.784 334.649 250.728C334.359 278.672 313.333 301.073 287.73 300.81C262.127 300.547 241.57 277.717 241.86 249.773C242.15 221.829 263.176 199.426 288.78 199.69Z" stroke="#A3FAD8" stroke-width="0.5"/>
<path opacity="0.924051" d="M288.628 199.813C314.512 200.003 335.359 222.722 335.152 250.595C334.945 278.468 313.763 300.878 287.879 300.687C261.996 300.497 241.15 277.778 241.357 249.905C241.563 222.032 262.744 199.623 288.628 199.813Z" stroke="#A3FAD8" stroke-width="0.5"/>
<path opacity="0.936709" d="M288.5 199.937C314.665 200.066 335.789 222.681 335.651 250.483C335.514 278.284 314.167 300.691 288.002 300.563C261.838 300.435 240.714 277.819 240.852 250.017C240.989 222.216 262.336 199.809 288.5 199.937Z" stroke="#A3FAD8" stroke-width="0.5"/>
<path opacity="0.949367" d="M288.407 200.062C314.852 200.14 336.242 222.662 336.16 250.391C336.077 278.12 314.554 300.516 288.109 300.438C261.665 300.36 240.274 277.838 240.356 250.109C240.439 222.38 261.963 199.984 288.407 200.062Z" stroke="#A3FAD8" stroke-width="0.5"/>
<path opacity="0.962025" d="M288.329 200.186C315.054 200.226 336.699 222.664 336.658 250.321C336.617 277.979 314.905 300.353 288.18 300.313C261.456 300.274 239.81 277.836 239.851 250.179C239.893 222.521 261.605 200.147 288.329 200.186Z" stroke="#A3FAD8" stroke-width="0.5"/>
<path opacity="0.974684" d="M288.275 200.311C315.279 200.325 337.169 222.689 337.156 250.274C337.142 277.859 315.23 300.202 288.226 300.189C261.221 300.176 239.331 277.811 239.345 250.226C239.359 222.64 261.27 200.298 288.275 200.311Z" stroke="#A3FAD8" stroke-width="0.5"/>
<path opacity="0.987342" d="M288.255 200.436C315.54 200.436 337.662 222.737 337.662 250.25C337.662 277.764 315.539 300.064 288.255 300.064C260.971 300.064 238.849 277.764 238.849 250.25C238.849 222.737 260.97 200.436 288.255 200.436Z" stroke="#A3FAD8" stroke-width="0.5"/>
<path d="M288.255 200.561C315.82 200.561 338.163 222.809 338.163 250.25C338.163 277.692 315.82 299.939 288.255 299.939C260.691 299.939 238.347 277.692 238.347 250.25C238.347 222.809 260.691 200.561 288.255 200.561Z" stroke="#A3FAD8" stroke-width="0.5"/>
</g>
</g>
<g style="mix-blend-mode:plus-lighter" filter="url(#filter2_f_3279_3777)">
<path d="M308.24 247.927C308.24 256.615 296.902 268.652 288.176 268.652C279.45 268.652 267.862 258.862 267.862 250.175C267.862 241.487 275.438 231.697 284.164 231.697C292.89 231.697 308.24 239.239 308.24 247.927Z" fill="#86E4F5"/>
</g>
<g style="mix-blend-mode:plus-lighter" opacity="0.39" filter="url(#filter3_f_3279_3777)">
<path d="M317.946 232.446C317.946 241.134 306.608 253.171 297.882 253.171C289.156 253.171 288.602 248.363 288.602 239.675C288.602 230.987 285.144 216.216 293.87 216.216C302.596 216.216 317.946 223.758 317.946 232.446Z" fill="#86E4F5"/>
</g>
<g style="mix-blend-mode:plus-lighter" opacity="0.39" filter="url(#filter4_f_3279_3777)">
<path d="M306.456 275.635C298.552 279.315 282.798 274.189 279.102 266.319C275.405 258.449 279.545 255.912 287.449 252.232C295.354 248.552 307.328 239.176 311.024 247.046C314.721 254.916 314.361 271.955 306.456 275.635Z" fill="#86E4F5"/>
</g>
<g filter="url(#filter5_dd_3279_3777)">
<rect x="16" y="464.5" width="544.5" height="168" rx="16" fill="white" shape-rendering="crispEdges"/>
<rect x="16.5" y="465" width="543.5" height="167" rx="15.5" stroke="#DFDFDF" shape-rendering="crispEdges"/>
<path d="M351.5 573C363.374 573 373 582.626 373 594.5C373 606.374 363.374 616 351.5 616C339.626 616 330 606.374 330 594.5C330 582.626 339.626 573 351.5 573Z" fill="white"/>
<path d="M351.5 573C363.374 573 373 582.626 373 594.5C373 606.374 363.374 616 351.5 616C339.626 616 330 606.374 330 594.5C330 582.626 339.626 573 351.5 573Z" stroke="#DFDFDF"/>
<path d="M345.875 595.125V593.875C345.875 593.53 346.155 593.25 346.5 593.25C346.845 593.25 347.125 593.53 347.125 593.875V595.125C347.125 597.541 349.084 599.5 351.5 599.5C353.916 599.5 355.875 597.541 355.875 595.125V593.875C355.875 593.53 356.155 593.25 356.5 593.25C356.845 593.25 357.125 593.53 357.125 593.875V595.125C357.125 598.02 354.937 600.403 352.125 600.714V602.625H354.625C354.97 602.625 355.25 602.905 355.25 603.25C355.25 603.595 354.97 603.875 354.625 603.875H348.375C348.03 603.875 347.75 603.595 347.75 603.25C347.75 602.905 348.03 602.625 348.375 602.625H350.875V600.714C348.063 600.403 345.875 598.02 345.875 595.125ZM353.375 588.25C353.375 587.214 352.536 586.375 351.5 586.375C350.464 586.375 349.625 587.214 349.625 588.25V595.125C349.625 596.161 350.464 597 351.5 597C352.536 597 353.375 596.161 353.375 595.125V588.25ZM354.625 595.125C354.625 596.851 353.226 598.25 351.5 598.25C349.774 598.25 348.375 596.851 348.375 595.125V588.25C348.375 586.524 349.774 585.125 351.5 585.125C353.226 585.125 354.625 586.524 354.625 588.25V595.125Z" fill="#363636"/>
<path d="M385.5 594.5C385.5 582.35 395.35 572.5 407.5 572.5C419.65 572.5 429.5 582.35 429.5 594.5C429.5 606.65 419.65 616.5 407.5 616.5C395.35 616.5 385.5 606.65 385.5 594.5Z" fill="url(#paint1_linear_3279_3777)"/>
<path d="M405.208 602V587C405.208 586.655 405.488 586.375 405.833 586.375C406.179 586.375 406.458 586.655 406.458 587V602C406.458 602.345 406.179 602.625 405.833 602.625C405.488 602.625 405.208 602.345 405.208 602ZM411.875 599.5V588.667C411.875 588.321 412.155 588.042 412.5 588.042C412.845 588.042 413.125 588.321 413.125 588.667V599.5C413.125 599.845 412.845 600.125 412.5 600.125C412.155 600.125 411.875 599.845 411.875 599.5ZM401.875 598.667V589.5C401.875 589.155 402.155 588.875 402.5 588.875C402.845 588.875 403.125 589.155 403.125 589.5V598.667C403.125 599.012 402.845 599.292 402.5 599.292C402.155 599.292 401.875 599.012 401.875 598.667ZM408.542 597V591.167C408.542 590.821 408.822 590.542 409.167 590.542C409.512 590.542 409.792 590.821 409.792 591.167V597C409.792 597.345 409.512 597.625 409.167 597.625C408.822 597.625 408.542 597.345 408.542 597ZM398.542 595.333V592.833C398.542 592.488 398.822 592.208 399.167 592.208C399.512 592.208 399.792 592.488 399.792 592.833V595.333C399.792 595.679 399.512 595.958 399.167 595.958C398.822 595.958 398.542 595.679 398.542 595.333ZM415.208 595.333V592.833C415.208 592.488 415.488 592.208 415.833 592.208C416.179 592.208 416.458 592.488 416.458 592.833V595.333C416.458 595.679 416.179 595.958 415.833 595.958C415.488 595.958 415.208 595.679 415.208 595.333Z" fill="#363636"/>
<path d="M441.5 594.5C441.5 582.35 451.35 572.5 463.5 572.5H522.5C534.65 572.5 544.5 582.35 544.5 594.5C544.5 606.65 534.65 616.5 522.5 616.5H463.5C451.35 616.5 441.5 606.65 441.5 594.5Z" fill="#00879F"/>
<path d="M478.375 594.5C478.375 590.703 475.297 587.625 471.5 587.625C467.703 587.625 464.625 590.703 464.625 594.5C464.625 598.297 467.703 601.375 471.5 601.375C475.297 601.375 478.375 598.297 478.375 594.5ZM469 597V592C469 591.655 469.28 591.375 469.625 591.375C469.97 591.375 470.25 591.655 470.25 592V597C470.25 597.345 469.97 597.625 469.625 597.625C469.28 597.625 469 597.345 469 597ZM472.75 597V592C472.75 591.655 473.03 591.375 473.375 591.375C473.72 591.375 474 591.655 474 592V597C474 597.345 473.72 597.625 473.375 597.625C473.03 597.625 472.75 597.345 472.75 597ZM479.625 594.5C479.625 598.987 475.987 602.625 471.5 602.625C467.013 602.625 463.375 598.987 463.375 594.5C463.375 590.013 467.013 586.375 471.5 586.375C475.987 586.375 479.625 590.013 479.625 594.5Z" fill="white"/>
<path d="M492.732 600.74C489.852 600.74 488.3 599.076 488.172 597.06H489.724C489.852 598.116 490.604 599.396 492.732 599.396C494.732 599.396 495.516 598.42 495.516 597.508C495.516 596.548 495.052 595.924 493.196 595.588L492.044 595.38C489.612 594.948 488.652 593.908 488.652 592.18C488.652 590.516 490.108 588.98 492.54 588.98C495.516 588.98 496.732 590.836 496.908 592.468H495.324C495.1 591.332 494.38 590.292 492.556 590.292C490.812 590.292 490.14 591.268 490.14 592.052C490.14 593.06 490.668 593.524 492.38 593.828L493.548 594.036C495.836 594.436 497.18 595.524 497.18 597.396C497.18 599.332 495.468 600.74 492.732 600.74ZM501.937 600.5C500.545 600.5 499.761 599.636 499.761 598.052V593.732H498.321V592.58H499.761V590.58H501.249V592.58H503.137V593.732H501.249V598.1C501.249 598.948 501.665 599.22 502.401 599.22H503.137V600.5H501.937ZM508.616 600.74C506.2 600.74 504.424 599.012 504.424 596.532C504.424 594.052 506.2 592.34 508.616 592.34C511.032 592.34 512.808 594.052 512.808 596.532C512.808 599.012 511.032 600.74 508.616 600.74ZM505.96 596.516C505.96 598.26 506.984 599.492 508.616 599.492C510.248 599.492 511.272 598.228 511.272 596.516C511.272 594.804 510.264 593.572 508.616 593.572C506.968 593.572 505.96 594.772 505.96 596.516ZM514.875 603.22V592.58H516.331V593.732C516.507 593.444 517.371 592.34 519.163 592.34C521.515 592.34 523.083 594.068 523.083 596.548C523.083 598.964 521.515 600.74 519.147 600.74C517.579 600.74 516.683 600.02 516.379 599.492V603.22H514.875ZM516.267 596.548C516.267 598.324 517.355 599.492 518.923 599.492C520.523 599.492 521.547 598.34 521.547 596.548C521.547 594.756 520.523 593.588 518.923 593.588C517.355 593.588 516.267 594.74 516.267 596.548Z" fill="white"/>
</g>
<defs>
<filter id="filter0_dd_3279_3777" x="206.25" y="178.25" width="164" height="164" filterUnits="userSpaceOnUse" color-interpolation-filters="sRGB">
<feFlood flood-opacity="0" result="BackgroundImageFix"/>
<feColorMatrix in="SourceAlpha" type="matrix" values="0 0 0 0 0 0 0 0 0 0 0 0 0 0 0 0 0 0 127 0" result="hardAlpha"/>
<feMorphology radius="4" operator="erode" in="SourceAlpha" result="effect1_dropShadow_3279_3777"/>
<feOffset dy="4"/>
<feGaussianBlur stdDeviation="3"/>
<feComposite in2="hardAlpha" operator="out"/>
<feColorMatrix type="matrix" values="0 0 0 0 0 0 0 0 0 0 0 0 0 0 0 0 0 0 0.1 0"/>
<feBlend mode="normal" in2="BackgroundImageFix" result="effect1_dropShadow_3279_3777"/>
<feColorMatrix in="SourceAlpha" type="matrix" values="0 0 0 0 0 0 0 0 0 0 0 0 0 0 0 0 0 0 127 0" result="hardAlpha"/>
<feMorphology radius="3" operator="erode" in="SourceAlpha" result="effect2_dropShadow_3279_3777"/>
<feOffset dy="10"/>
<feGaussianBlur stdDeviation="7.5"/>
<feComposite in2="hardAlpha" operator="out"/>
<feColorMatrix type="matrix" values="0 0 0 0 0 0 0 0 0 0 0 0 0 0 0 0 0 0 0.1 0"/>
<feBlend mode="normal" in2="effect1_dropShadow_3279_3777" result="effect2_dropShadow_3279_3777"/>
<feBlend mode="normal" in="SourceGraphic" in2="effect2_dropShadow_3279_3777" result="shape"/>
</filter>
<filter id="filter1_f_3279_3777" x="236.097" y="195.154" width="104.314" height="110.192" filterUnits="userSpaceOnUse" color-interpolation-filters="sRGB">
<feFlood flood-opacity="0" result="BackgroundImageFix"/>
<feBlend mode="normal" in="SourceGraphic" in2="BackgroundImageFix" result="shape"/>
<feGaussianBlur stdDeviation="1" result="effect1_foregroundBlur_3279_3777"/>
</filter>
<filter id="filter2_f_3279_3777" x="254.662" y="218.497" width="66.7774" height="63.3551" filterUnits="userSpaceOnUse" color-interpolation-filters="sRGB">
<feFlood flood-opacity="0" result="BackgroundImageFix"/>
<feBlend mode="normal" in="SourceGraphic" in2="BackgroundImageFix" result="shape"/>
<feGaussianBlur stdDeviation="6.6" result="effect1_foregroundBlur_3279_3777"/>
</filter>
<filter id="filter3_f_3279_3777" x="274.726" y="203.016" width="56.4198" height="63.3551" filterUnits="userSpaceOnUse" color-interpolation-filters="sRGB">
<feFlood flood-opacity="0" result="BackgroundImageFix"/>
<feBlend mode="normal" in="SourceGraphic" in2="BackgroundImageFix" result="shape"/>
<feGaussianBlur stdDeviation="6.6" result="effect1_foregroundBlur_3279_3777"/>
</filter>
<filter id="filter4_f_3279_3777" x="264.535" y="230.788" width="61.9564" height="59.263" filterUnits="userSpaceOnUse" color-interpolation-filters="sRGB">
<feFlood flood-opacity="0" result="BackgroundImageFix"/>
<feBlend mode="normal" in="SourceGraphic" in2="BackgroundImageFix" result="shape"/>
<feGaussianBlur stdDeviation="6.6" result="effect1_foregroundBlur_3279_3777"/>
</filter>
<filter id="filter5_dd_3279_3777" x="13" y="462.5" width="550.5" height="174" filterUnits="userSpaceOnUse" color-interpolation-filters="sRGB">
<feFlood flood-opacity="0" result="BackgroundImageFix"/>
<feColorMatrix in="SourceAlpha" type="matrix" values="0 0 0 0 0 0 0 0 0 0 0 0 0 0 0 0 0 0 127 0" result="hardAlpha"/>
<feMorphology radius="1" operator="erode" in="SourceAlpha" result="effect1_dropShadow_3279_3777"/>
<feOffset dy="1"/>
<feGaussianBlur stdDeviation="1"/>
<feComposite in2="hardAlpha" operator="out"/>
<feColorMatrix type="matrix" values="0 0 0 0 0 0 0 0 0 0 0 0 0 0 0 0 0 0 0.1 0"/>
<feBlend mode="normal" in2="BackgroundImageFix" result="effect1_dropShadow_3279_3777"/>
<feColorMatrix in="SourceAlpha" type="matrix" values="0 0 0 0 0 0 0 0 0 0 0 0 0 0 0 0 0 0 127 0" result="hardAlpha"/>
<feOffset dy="1"/>
<feGaussianBlur stdDeviation="1.5"/>
<feComposite in2="hardAlpha" operator="out"/>
<feColorMatrix type="matrix" values="0 0 0 0 0 0 0 0 0 0 0 0 0 0 0 0 0 0 0.1 0"/>
<feBlend mode="normal" in2="effect1_dropShadow_3279_3777" result="effect2_dropShadow_3279_3777"/>
<feBlend mode="normal" in="SourceGraphic" in2="effect2_dropShadow_3279_3777" result="shape"/>
</filter>
<linearGradient id="paint0_linear_3279_3777" x1="288.25" y1="180.25" x2="288.25" y2="320.25" gradientUnits="userSpaceOnUse">
<stop stop-color="#D0F94A"/>
<stop offset="0.54" stop-color="#00D49C"/>
<stop offset="1" stop-color="#00879F"/>
</linearGradient>
<linearGradient id="paint1_linear_3279_3777" x1="407.5" y1="616.5" x2="335.291" y2="461.513" gradientUnits="userSpaceOnUse">
<stop stop-color="#D0F94A"/>
<stop offset="0.54" stop-color="#00D49C"/>
<stop offset="1" stop-color="#00879F"/>
</linearGradient>
</defs>
</svg>
