<svg width="577" height="665" viewBox="0 0 577 665" fill="none" xmlns="http://www.w3.org/2000/svg">
<path d="M1.896 25V8.08H10.128C13.512 8.08 16.128 10.192 16.128 13.504C16.128 16.84 13.656 18.952 10.008 18.952H5.904V25H1.896ZM5.904 15.856H9.528C10.968 15.856 12.024 15.04 12.024 13.576C12.024 12.064 10.968 11.272 9.504 11.272H5.904V15.856ZM23.3216 25.36C19.8656 25.36 17.4656 23.608 17.4656 20.728C17.4656 19 18.3776 17.392 20.9456 16.024L21.2816 15.832C20.0336 14.632 19.0496 13.48 19.0496 11.848C19.0496 9.424 21.2576 7.72 24.4496 7.72C27.7136 7.72 29.7536 9.4 29.7536 11.704C29.7536 13.576 28.5776 14.8 26.4896 15.976L26.0816 16.216L28.7936 18.712L30.7376 16.624H35.2256L31.0976 20.872L35.5616 25H30.9296L28.9136 23.08C26.9456 24.904 25.2416 25.36 23.3216 25.36ZM21.2576 20.44C21.2576 21.688 22.2176 22.552 23.4656 22.552C24.4016 22.552 25.4096 22.24 26.6816 20.944L23.3216 17.776L22.8176 18.064C21.5936 18.784 21.2576 19.672 21.2576 20.44ZM22.5536 11.92C22.5536 12.712 22.9856 13.312 24.0656 14.32L24.4736 14.104C26.0576 13.216 26.2496 12.544 26.2496 11.896C26.2496 10.936 25.4816 10.36 24.4256 10.36C23.3456 10.36 22.5536 10.96 22.5536 11.92ZM37.4038 25V8.08H41.4358V25H37.4038ZM45.2554 25V8.08H51.5674C56.9194 8.08 60.8794 11.176 60.8794 16.528C60.8794 21.832 57.1594 25 51.6394 25H45.2554ZM49.2874 21.712H51.3754C54.5194 21.712 56.6794 20.008 56.6794 16.552C56.6794 13.024 54.5194 11.368 51.4234 11.368H49.2874V21.712ZM69.396 25V8.08H73.428V14.68H80.076V8.08H84.108V25H80.076V18.016H73.428V25H69.396ZM87.3876 25V12.976H91.2516V25H87.3876ZM87.1236 9.16C87.1236 8.032 87.9396 7.072 89.3076 7.072C90.6756 7.072 91.5636 8.032 91.5636 9.16C91.5636 10.336 90.6756 11.32 89.3076 11.32C87.9396 11.32 87.1236 10.336 87.1236 9.16ZM100.325 29.416C96.2205 29.416 94.1805 27.76 93.9165 25.12H97.7565C97.8525 26.08 98.5245 26.92 100.349 26.92C102.173 26.92 103.205 25.936 103.205 24.064V22.768C102.365 23.776 101.021 24.304 99.1965 24.304C96.1245 24.304 93.7245 22.168 93.7245 18.568C93.7245 14.944 95.9565 12.64 99.1245 12.64C101.189 12.64 102.461 13.504 103.229 14.392V12.976H106.973V23.776C106.973 27.568 104.285 29.416 100.325 29.416ZM97.6365 18.712C97.6125 20.56 98.6925 21.832 100.469 21.832C102.221 21.832 103.325 20.56 103.325 18.712C103.349 16.672 102.245 15.496 100.469 15.496C98.6925 15.496 97.6365 16.672 97.6365 18.712ZM110.052 25V8.08H113.94V14.32C114.492 13.6 115.716 12.688 117.612 12.688C120.228 12.688 122.244 14.248 122.244 17.488V25H118.356V18.04C118.356 16.312 117.588 15.592 116.268 15.592C114.612 15.592 113.94 16.864 113.94 18.616V25H110.052ZM128.744 25C126.296 25 125.144 23.872 125.144 21.448V8.08H128.984V21.232C128.984 21.88 129.272 22.12 129.872 22.12H130.376V25H128.744ZM132.739 25V12.976H136.603V25H132.739ZM132.475 9.16C132.475 8.032 133.291 7.072 134.659 7.072C136.027 7.072 136.915 8.032 136.915 9.16C136.915 10.336 136.027 11.32 134.659 11.32C133.291 11.32 132.475 10.336 132.475 9.16ZM145.676 29.416C141.572 29.416 139.532 27.76 139.268 25.12H143.108C143.204 26.08 143.876 26.92 145.7 26.92C147.524 26.92 148.556 25.936 148.556 24.064V22.768C147.716 23.776 146.372 24.304 144.548 24.304C141.476 24.304 139.076 22.168 139.076 18.568C139.076 14.944 141.308 12.64 144.476 12.64C146.54 12.64 147.812 13.504 148.58 14.392V12.976H152.324V23.776C152.324 27.568 149.636 29.416 145.676 29.416ZM142.988 18.712C142.964 20.56 144.044 21.832 145.82 21.832C147.572 21.832 148.676 20.56 148.676 18.712C148.7 16.672 147.596 15.496 145.82 15.496C144.044 15.496 142.988 16.672 142.988 18.712ZM155.403 25V8.08H159.291V14.32C159.843 13.6 161.067 12.688 162.963 12.688C165.579 12.688 167.595 14.248 167.595 17.488V25H163.707V18.04C163.707 16.312 162.939 15.592 161.619 15.592C159.963 15.592 159.291 16.864 159.291 18.616V25H155.403ZM175.251 25C172.659 25 171.243 23.608 171.243 21.016V15.592H169.371V12.976H171.243V9.904H175.059V12.976H177.531V15.592H175.059V20.8C175.059 21.76 175.515 22.072 176.403 22.072H177.531V25H175.251Z" fill="#363636"/>
<rect y="40" width="576.5" height="40" rx="12" fill="#F7F7F7"/>
<path d="M14.266 65L18.27 55.13H19.922L24.01 65H22.442L21.42 62.368H16.758L15.75 65H14.266ZM17.178 61.22H20.986L19.054 56.292L17.178 61.22ZM26.9982 65C25.8782 65 25.3462 64.384 25.3462 63.39V55.13H26.6482V63.306C26.6482 63.754 26.8582 63.922 27.2642 63.922H27.5302V65H26.9982ZM30.8674 65C29.7474 65 29.2154 64.384 29.2154 63.39V55.13H30.5174V63.306C30.5174 63.754 30.7274 63.922 31.1334 63.922H31.3994V65H30.8674Z" fill="#363636"/>
<path d="M55.682 65V56.32H52.364V55.13H60.386V56.32H57.068V65H55.682ZM63.156 65.21C61.098 65.21 59.74 63.698 59.74 61.528C59.74 59.414 61.084 57.86 63.142 57.86C64.5 57.86 65.312 58.504 65.648 58.98V58.07H66.922V65H65.648V63.992C65.494 64.244 64.696 65.21 63.156 65.21ZM61.084 61.528C61.084 63.096 61.98 64.118 63.38 64.118C64.752 64.118 65.704 63.11 65.704 61.528C65.704 59.974 64.752 58.952 63.38 58.952C61.98 58.952 61.084 59.96 61.084 61.528ZM72.1805 67.59C70.0525 67.59 69.0025 66.624 68.8905 65.154H70.2205C70.2485 65.812 70.7245 66.54 72.1805 66.54C73.4965 66.54 74.3085 65.798 74.3085 64.398V63.544C73.8045 64.244 72.9645 64.636 71.8445 64.636C70.2065 64.636 68.7505 63.418 68.7505 61.318C68.7505 59.232 70.0805 57.86 71.9005 57.86C73.2305 57.86 73.9445 58.476 74.3365 58.938V58.07H75.6105V64.286C75.6105 66.428 74.2105 67.59 72.1805 67.59ZM70.0805 61.29C70.0805 62.606 70.8645 63.572 72.2365 63.572C73.5945 63.572 74.3925 62.606 74.3925 61.29C74.3925 59.82 73.5945 58.938 72.2365 58.938C70.8645 58.938 70.0805 59.82 70.0805 61.29ZM80.3998 65.21C78.1738 65.21 77.3198 63.964 77.2778 62.746H78.4818C78.5658 63.348 79.0418 64.16 80.3858 64.16C81.3658 64.16 81.9538 63.74 81.9538 63.166C81.9538 62.62 81.6318 62.34 80.4978 62.116L79.8538 61.99C78.1038 61.654 77.6278 60.94 77.6278 59.904C77.6278 58.756 78.6918 57.86 80.1898 57.86C82.2338 57.86 83.0318 58.966 83.1438 59.946H81.8978C81.7578 59.33 81.2258 58.91 80.1758 58.91C79.2798 58.91 78.8318 59.302 78.8318 59.806C78.8318 60.324 79.2378 60.562 80.2318 60.758L80.9318 60.898C82.4858 61.206 83.2978 61.878 83.2978 63.082C83.2978 64.3 82.2898 65.21 80.3998 65.21Z" fill="#363636"/>
<rect x="92" y="52" width="16" height="16" rx="8" fill="#D4D4D4"/>
<path d="M95.7685 65V56.95L92.9265 59.022V57.314L95.9365 55.13H97.4345V65H95.7685ZM103.054 65.196C100.534 65.196 99.3302 63.572 99.4142 61.794H101.08C101.066 63.04 101.766 63.824 103.026 63.824C104.146 63.824 104.944 63.166 104.944 62.2C104.944 61.36 104.3 60.604 102.9 60.604H102.312V59.26H102.9C104.118 59.26 104.678 58.588 104.678 57.734C104.678 56.908 104.006 56.278 102.984 56.278C101.99 56.278 101.248 56.852 101.22 58.112H99.5822C99.5962 56.208 100.898 54.934 103.012 54.934C105.112 54.934 106.372 56.124 106.372 57.566C106.372 58.658 105.714 59.512 104.776 59.834C105.812 60.17 106.694 61.038 106.694 62.312C106.694 63.964 105.224 65.196 103.054 65.196Z" fill="#363636"/>
<g filter="url(#filter0_dd_3279_3770)">
<rect x="118" y="44" width="132" height="32" rx="10" fill="white" shape-rendering="crispEdges"/>
</g>
<g clip-path="url(#clip0_3279_3770)">
<rect y="88" width="576.5" height="576.5" rx="24" fill="#F7F7F7"/>
</g>
<defs>
<filter id="filter0_dd_3279_3770" x="115" y="42" width="138" height="38" filterUnits="userSpaceOnUse" color-interpolation-filters="sRGB">
<feFlood flood-opacity="0" result="BackgroundImageFix"/>
<feColorMatrix in="SourceAlpha" type="matrix" values="0 0 0 0 0 0 0 0 0 0 0 0 0 0 0 0 0 0 127 0" result="hardAlpha"/>
<feMorphology radius="1" operator="erode" in="SourceAlpha" result="effect1_dropShadow_3279_3770"/>
<feOffset dy="1"/>
<feGaussianBlur stdDeviation="1"/>
<feComposite in2="hardAlpha" operator="out"/>
<feColorMatrix type="matrix" values="0 0 0 0 0 0 0 0 0 0 0 0 0 0 0 0 0 0 0.1 0"/>
<feBlend mode="normal" in2="BackgroundImageFix" result="effect1_dropShadow_3279_3770"/>
<feColorMatrix in="SourceAlpha" type="matrix" values="0 0 0 0 0 0 0 0 0 0 0 0 0 0 0 0 0 0 127 0" result="hardAlpha"/>
<feOffset dy="1"/>
<feGaussianBlur stdDeviation="1.5"/>
<feComposite in2="hardAlpha" operator="out"/>
<feColorMatrix type="matrix" values="0 0 0 0 0 0 0 0 0 0 0 0 0 0 0 0 0 0 0.1 0"/>
<feBlend mode="normal" in2="effect1_dropShadow_3279_3770" result="effect2_dropShadow_3279_3770"/>
<feBlend mode="normal" in="SourceGraphic" in2="effect2_dropShadow_3279_3770" result="shape"/>
</filter>
<clipPath id="clip0_3279_3770">
<rect y="88" width="576.5" height="576.5" rx="24" fill="white"/>
</clipPath>
</defs>
</svg>
