<svg width="385" height="62" viewBox="0 0 385 62" fill="none" xmlns="http://www.w3.org/2000/svg">
<path d="M1.282 13V0.309999H6.826C9.004 0.309999 10.948 1.75 10.948 4.162C10.948 6.574 9.112 7.978 6.664 7.978H3.046V13H1.282ZM3.046 6.448H6.61C8.014 6.448 9.094 5.656 9.094 4.162C9.094 2.632 8.032 1.84 6.592 1.84H3.046V6.448ZM16.2981 13.27C14.1201 13.27 12.4281 12.082 12.4281 9.958C12.4281 8.806 13.0041 7.564 14.6781 6.538L15.2361 6.196L15.0741 6.034C14.2281 5.206 13.4721 4.306 13.4721 2.956C13.4721 1.3 14.9121 0.0399995 16.8561 0.0399995C18.8721 0.0399995 20.2221 1.318 20.2221 2.884C20.2221 4.252 19.3581 5.134 18.0441 6.016L17.5401 6.34L20.2941 9.022L22.0221 7.006H24.1101L21.3921 10.084L24.3981 13H22.1481L20.3481 11.236C18.7281 12.946 17.6481 13.27 16.2981 13.27ZM14.2281 9.868C14.2281 11.11 15.1821 11.812 16.2261 11.812C17.1441 11.812 18.0081 11.524 19.2861 10.174L16.2621 7.204L15.5601 7.672C14.4801 8.392 14.2281 9.202 14.2281 9.868ZM15.1101 2.992C15.1101 3.784 15.5241 4.396 16.3701 5.206L16.5501 5.386L17.0721 5.062C18.4581 4.216 18.5661 3.568 18.5661 2.974C18.5661 2.056 17.9181 1.462 16.8381 1.462C15.7941 1.462 15.1101 2.074 15.1101 2.992ZM26.3484 13V0.309999H28.1124V13H26.3484ZM31.6746 13V0.309999H35.9046C39.4326 0.309999 42.5106 2.488 42.5106 6.646C42.5106 10.678 39.6666 13 35.9766 13H31.6746ZM33.4386 11.47H35.6706C38.5686 11.47 40.6386 9.886 40.6386 6.7C40.6386 3.37 38.5506 1.84 35.7246 1.84H33.4386V11.47ZM48.178 13.27C45.316 13.27 44.218 11.668 44.164 10.102H45.712C45.82 10.876 46.432 11.92 48.16 11.92C49.42 11.92 50.176 11.38 50.176 10.642C50.176 9.94 49.762 9.58 48.304 9.292L47.476 9.13C45.226 8.698 44.614 7.78 44.614 6.448C44.614 4.972 45.982 3.82 47.908 3.82C50.536 3.82 51.562 5.242 51.706 6.502H50.104C49.924 5.71 49.24 5.17 47.89 5.17C46.738 5.17 46.162 5.674 46.162 6.322C46.162 6.988 46.684 7.294 47.962 7.546L48.862 7.726C50.86 8.122 51.904 8.986 51.904 10.534C51.904 12.1 50.608 13.27 48.178 13.27ZM62.5186 16.33C59.7826 16.33 58.4326 15.088 58.2886 13.198H59.9986C60.0346 14.044 60.6466 14.98 62.5186 14.98C64.2106 14.98 65.2546 14.026 65.2546 12.226V11.128C64.6066 12.028 63.5266 12.532 62.0866 12.532C59.9806 12.532 58.1086 10.966 58.1086 8.266C58.1086 5.584 59.8186 3.82 62.1586 3.82C63.8686 3.82 64.7866 4.612 65.2906 5.206V4.09H66.9286V12.082C66.9286 14.836 65.1286 16.33 62.5186 16.33ZM59.8186 8.23C59.8186 9.922 60.8266 11.164 62.5906 11.164C64.3366 11.164 65.3626 9.922 65.3626 8.23C65.3626 6.34 64.3366 5.206 62.5906 5.206C60.8266 5.206 59.8186 6.34 59.8186 8.23ZM73.9683 13.27C71.2503 13.27 69.2523 11.326 69.2523 8.536C69.2523 5.746 71.2503 3.82 73.9683 3.82C76.6863 3.82 78.6843 5.746 78.6843 8.536C78.6843 11.326 76.6863 13.27 73.9683 13.27ZM70.9803 8.518C70.9803 10.48 72.1323 11.866 73.9683 11.866C75.8043 11.866 76.9563 10.444 76.9563 8.518C76.9563 6.592 75.8223 5.206 73.9683 5.206C72.1143 5.206 70.9803 6.556 70.9803 8.518ZM90.3684 13.27C88.3524 13.27 87.3804 12.028 87.1824 11.704V13H85.5444V0.309999H87.2364V5.224C87.6684 4.648 88.5864 3.82 90.3504 3.82C93.0144 3.82 94.7784 5.818 94.7784 8.536C94.7784 11.326 93.0144 13.27 90.3684 13.27ZM87.1104 8.536C87.1104 10.57 88.3344 11.866 90.0984 11.866C91.8984 11.866 93.0504 10.552 93.0504 8.536C93.0504 6.52 91.8984 5.224 90.0984 5.224C88.3344 5.224 87.1104 6.538 87.1104 8.536ZM100.855 13.27C98.0472 13.27 96.4812 11.38 96.4812 8.572C96.4812 5.728 98.1372 3.82 100.855 3.82C103.681 3.82 105.337 5.926 105.157 8.95H98.1732C98.2272 10.786 99.1812 11.884 100.819 11.884C102.259 11.884 102.925 11.128 103.267 10.246H104.995C104.725 11.416 103.627 13.27 100.855 13.27ZM98.2272 7.654H103.375C103.303 5.926 102.133 5.152 100.855 5.152C99.3612 5.152 98.4252 5.98 98.2272 7.654ZM107.973 16.06L109.809 12.028L106.119 4.09H107.955L110.673 10.156L113.175 4.09H114.939L109.737 16.06H107.973ZM120.621 13.27C117.903 13.27 115.905 11.326 115.905 8.536C115.905 5.746 117.903 3.82 120.621 3.82C123.339 3.82 125.337 5.746 125.337 8.536C125.337 11.326 123.339 13.27 120.621 13.27ZM117.633 8.518C117.633 10.48 118.785 11.866 120.621 11.866C122.457 11.866 123.609 10.444 123.609 8.518C123.609 6.592 122.475 5.206 120.621 5.206C118.767 5.206 117.633 6.556 117.633 8.518ZM127.662 13V4.09H129.3V5.296C129.588 4.792 130.488 3.82 132.144 3.82C134.052 3.82 135.438 4.99 135.438 7.186V13H133.764V7.402C133.764 5.782 132.954 5.206 131.73 5.206C130.02 5.206 129.354 6.556 129.354 8.338V13H127.662ZM142.041 13.27C139.395 13.27 137.649 11.326 137.649 8.536C137.649 5.818 139.395 3.82 142.041 3.82C143.787 3.82 144.759 4.648 145.191 5.224V0.309999H146.883V13H145.245V11.704C145.047 12.028 144.021 13.27 142.041 13.27ZM139.377 8.536C139.377 10.552 140.529 11.866 142.329 11.866C144.093 11.866 145.317 10.57 145.317 8.536C145.317 6.538 144.093 5.224 142.329 5.224C140.529 5.224 139.377 6.52 139.377 8.536ZM157.351 13C155.785 13 154.903 12.028 154.903 10.246V5.386H153.283V4.09H154.903V1.84H156.577V4.09H158.701V5.386H156.577V10.3C156.577 11.254 157.045 11.56 157.873 11.56H158.701V13H157.351ZM160.919 13V4.09H162.557V5.764C162.935 5.008 163.835 4 165.527 4H165.779V5.692H165.329C163.367 5.692 162.611 6.844 162.611 8.608V13H160.919ZM171.15 13.27C168.504 13.27 166.758 11.326 166.758 8.536C166.758 5.818 168.486 3.82 171.132 3.82C172.878 3.82 173.922 4.648 174.354 5.26V4.09H175.992V13H174.354V11.704C174.156 12.028 173.13 13.27 171.15 13.27ZM168.486 8.536C168.486 10.552 169.638 11.866 171.438 11.866C173.202 11.866 174.426 10.57 174.426 8.536C174.426 6.538 173.202 5.224 171.438 5.224C169.638 5.224 168.486 6.52 168.486 8.536ZM182.699 13.27C180.053 13.27 178.307 11.326 178.307 8.536C178.307 5.818 180.053 3.82 182.699 3.82C184.445 3.82 185.417 4.648 185.849 5.224V0.309999H187.541V13H185.903V11.704C185.705 12.028 184.679 13.27 182.699 13.27ZM180.035 8.536C180.035 10.552 181.187 11.866 182.987 11.866C184.751 11.866 185.975 10.57 185.975 8.536C185.975 6.538 184.751 5.224 182.987 5.224C181.187 5.224 180.035 6.52 180.035 8.536ZM190.486 13V4.09H192.178V13H190.486ZM190.234 1.174C190.234 0.616 190.612 0.112 191.314 0.112C192.016 0.112 192.412 0.616 192.412 1.174C192.412 1.75 192.016 2.272 191.314 2.272C190.612 2.272 190.234 1.75 190.234 1.174ZM198.114 13C196.548 13 195.666 12.028 195.666 10.246V5.386H194.046V4.09H195.666V1.84H197.34V4.09H199.464V5.386H197.34V10.3C197.34 11.254 197.808 11.56 198.636 11.56H199.464V13H198.114ZM201.683 13V4.09H203.375V13H201.683ZM201.431 1.174C201.431 0.616 201.809 0.112 202.511 0.112C203.213 0.112 203.609 0.616 203.609 1.174C203.609 1.75 203.213 2.272 202.511 2.272C201.809 2.272 201.431 1.75 201.431 1.174ZM210.41 13.27C207.692 13.27 205.694 11.326 205.694 8.536C205.694 5.746 207.692 3.82 210.41 3.82C213.128 3.82 215.126 5.746 215.126 8.536C215.126 11.326 213.128 13.27 210.41 13.27ZM207.422 8.518C207.422 10.48 208.574 11.866 210.41 11.866C212.246 11.866 213.398 10.444 213.398 8.518C213.398 6.592 212.264 5.206 210.41 5.206C208.556 5.206 207.422 6.556 207.422 8.518ZM217.451 13V4.09H219.089V5.296C219.377 4.792 220.277 3.82 221.933 3.82C223.841 3.82 225.227 4.99 225.227 7.186V13H223.553V7.402C223.553 5.782 222.743 5.206 221.519 5.206C219.809 5.206 219.143 6.556 219.143 8.338V13H217.451ZM231.83 13.27C229.184 13.27 227.438 11.326 227.438 8.536C227.438 5.818 229.166 3.82 231.812 3.82C233.558 3.82 234.602 4.648 235.034 5.26V4.09H236.672V13H235.034V11.704C234.836 12.028 233.81 13.27 231.83 13.27ZM229.166 8.536C229.166 10.552 230.318 11.866 232.118 11.866C233.882 11.866 235.106 10.57 235.106 8.536C235.106 6.538 233.882 5.224 232.118 5.224C230.318 5.224 229.166 6.52 229.166 8.536ZM241.687 13C240.247 13 239.563 12.208 239.563 10.93V0.309999H241.237V10.822C241.237 11.398 241.507 11.614 242.029 11.614H242.371V13H241.687ZM252.33 13.27C249.468 13.27 248.37 11.668 248.316 10.102H249.864C249.972 10.876 250.584 11.92 252.312 11.92C253.572 11.92 254.328 11.38 254.328 10.642C254.328 9.94 253.914 9.58 252.456 9.292L251.628 9.13C249.378 8.698 248.766 7.78 248.766 6.448C248.766 4.972 250.134 3.82 252.06 3.82C254.688 3.82 255.714 5.242 255.858 6.502H254.256C254.076 5.71 253.392 5.17 252.042 5.17C250.89 5.17 250.314 5.674 250.314 6.322C250.314 6.988 250.836 7.294 252.114 7.546L253.014 7.726C255.012 8.122 256.056 8.986 256.056 10.534C256.056 12.1 254.76 13.27 252.33 13.27ZM261.308 13C259.742 13 258.86 12.028 258.86 10.246V5.386H257.24V4.09H258.86V1.84H260.534V4.09H262.658V5.386H260.534V10.3C260.534 11.254 261.002 11.56 261.83 11.56H262.658V13H261.308ZM268.515 13.27C265.869 13.27 264.123 11.326 264.123 8.536C264.123 5.818 265.851 3.82 268.497 3.82C270.243 3.82 271.287 4.648 271.719 5.26V4.09H273.357V13H271.719V11.704C271.521 12.028 270.495 13.27 268.515 13.27ZM265.851 8.536C265.851 10.552 267.003 11.866 268.803 11.866C270.567 11.866 271.791 10.57 271.791 8.536C271.791 6.538 270.567 5.224 268.803 5.224C267.003 5.224 265.851 6.52 265.851 8.536ZM279.29 13C277.724 13 276.842 12.028 276.842 10.246V5.386H275.222V4.09H276.842V1.84H278.516V4.09H280.64V5.386H278.516V10.3C278.516 11.254 278.984 11.56 279.812 11.56H280.64V13H279.29ZM282.859 13V4.09H284.551V13H282.859ZM282.607 1.174C282.607 0.616 282.985 0.112 283.687 0.112C284.389 0.112 284.785 0.616 284.785 1.174C284.785 1.75 284.389 2.272 283.687 2.272C282.985 2.272 282.607 1.75 282.607 1.174ZM291.441 13.27C288.705 13.27 286.869 11.218 286.869 8.59C286.869 5.818 288.831 3.82 291.441 3.82C294.339 3.82 295.689 5.692 295.887 7.276H294.141C293.871 5.98 293.043 5.206 291.441 5.206C289.749 5.206 288.615 6.466 288.615 8.572C288.615 10.606 289.785 11.866 291.441 11.866C293.097 11.866 293.943 10.93 294.159 9.688H295.869C295.761 11.11 294.519 13.27 291.441 13.27ZM0.976 37V28.09H2.614V29.764C2.992 29.008 3.892 28 5.584 28H5.836V29.692H5.386C3.424 29.692 2.668 30.844 2.668 32.608V37H0.976ZM11.2068 37.27C8.39875 37.27 6.83275 35.38 6.83275 32.572C6.83275 29.728 8.48875 27.82 11.2068 27.82C14.0328 27.82 15.6888 29.926 15.5088 32.95H8.52475C8.57875 34.786 9.53275 35.884 11.1708 35.884C12.6108 35.884 13.2768 35.128 13.6188 34.246H15.3468C15.0768 35.416 13.9788 37.27 11.2068 37.27ZM8.57875 31.654H13.7268C13.6548 29.926 12.4848 29.152 11.2068 29.152C9.71275 29.152 8.77675 29.98 8.57875 31.654ZM17.851 40.06V28.09H19.489V29.386C19.687 29.062 20.659 27.82 22.675 27.82C25.321 27.82 27.085 29.764 27.085 32.554C27.085 35.272 25.321 37.27 22.657 37.27C20.893 37.27 19.885 36.46 19.543 35.866V40.06H17.851ZM19.417 32.554C19.417 34.552 20.641 35.866 22.405 35.866C24.205 35.866 25.357 34.57 25.357 32.554C25.357 30.538 24.205 29.224 22.405 29.224C20.641 29.224 19.417 30.52 19.417 32.554ZM29.3998 37V28.09H31.0378V29.764C31.4158 29.008 32.3158 28 34.0078 28H34.2598V29.692H33.8098C31.8478 29.692 31.0918 30.844 31.0918 32.608V37H29.3998ZM39.6306 37.27C36.8226 37.27 35.2566 35.38 35.2566 32.572C35.2566 29.728 36.9126 27.82 39.6306 27.82C42.4566 27.82 44.1126 29.926 43.9326 32.95H36.9486C37.0026 34.786 37.9566 35.884 39.5946 35.884C41.0346 35.884 41.7006 35.128 42.0426 34.246H43.7706C43.5006 35.416 42.4026 37.27 39.6306 37.27ZM37.0026 31.654H42.1506C42.0786 29.926 40.9086 29.152 39.6306 29.152C38.1366 29.152 37.2006 29.98 37.0026 31.654ZM49.4788 37.27C46.6168 37.27 45.5188 35.668 45.4648 34.102H47.0128C47.1208 34.876 47.7328 35.92 49.4608 35.92C50.7208 35.92 51.4768 35.38 51.4768 34.642C51.4768 33.94 51.0628 33.58 49.6048 33.292L48.7768 33.13C46.5268 32.698 45.9148 31.78 45.9148 30.448C45.9148 28.972 47.2828 27.82 49.2088 27.82C51.8368 27.82 52.8628 29.242 53.0068 30.502H51.4048C51.2248 29.71 50.5408 29.17 49.1908 29.17C48.0388 29.17 47.4628 29.674 47.4628 30.322C47.4628 30.988 47.9848 31.294 49.2628 31.546L50.1628 31.726C52.1608 32.122 53.2048 32.986 53.2048 34.534C53.2048 36.1 51.9088 37.27 49.4788 37.27ZM59.2302 37.27C56.4222 37.27 54.8562 35.38 54.8562 32.572C54.8562 29.728 56.5122 27.82 59.2302 27.82C62.0562 27.82 63.7122 29.926 63.5322 32.95H56.5482C56.6022 34.786 57.5562 35.884 59.1942 35.884C60.6342 35.884 61.3002 35.128 61.6422 34.246H63.3702C63.1002 35.416 62.0022 37.27 59.2302 37.27ZM56.6022 31.654H61.7502C61.6782 29.926 60.5082 29.152 59.2302 29.152C57.7362 29.152 56.8002 29.98 56.6022 31.654ZM65.8744 37V28.09H67.5124V29.296C67.8004 28.792 68.7004 27.82 70.3564 27.82C72.2644 27.82 73.6504 28.99 73.6504 31.186V37H71.9764V31.402C71.9764 29.782 71.1664 29.206 69.9424 29.206C68.2324 29.206 67.5664 30.556 67.5664 32.338V37H65.8744ZM79.4093 37C77.8433 37 76.9613 36.028 76.9613 34.246V29.386H75.3413V28.09H76.9613V25.84H78.6353V28.09H80.7593V29.386H78.6353V34.3C78.6353 35.254 79.1033 35.56 79.9313 35.56H80.7593V37H79.4093ZM86.6169 37.27C83.9709 37.27 82.2249 35.326 82.2249 32.536C82.2249 29.818 83.9529 27.82 86.5989 27.82C88.3449 27.82 89.3889 28.648 89.8209 29.26V28.09H91.4589V37H89.8209V35.704C89.6229 36.028 88.5969 37.27 86.6169 37.27ZM83.9529 32.536C83.9529 34.552 85.1049 35.866 86.9049 35.866C88.6689 35.866 89.8929 34.57 89.8929 32.536C89.8929 30.538 88.6689 29.224 86.9049 29.224C85.1049 29.224 83.9529 30.52 83.9529 32.536ZM97.3917 37C95.8257 37 94.9437 36.028 94.9437 34.246V29.386H93.3237V28.09H94.9437V25.84H96.6177V28.09H98.7417V29.386H96.6177V34.3C96.6177 35.254 97.0857 35.56 97.9137 35.56H98.7417V37H97.3917ZM100.96 37V28.09H102.652V37H100.96ZM100.708 25.174C100.708 24.616 101.086 24.112 101.788 24.112C102.49 24.112 102.886 24.616 102.886 25.174C102.886 25.75 102.49 26.272 101.788 26.272C101.086 26.272 100.708 25.75 100.708 25.174ZM109.687 37.27C106.969 37.27 104.971 35.326 104.971 32.536C104.971 29.746 106.969 27.82 109.687 27.82C112.405 27.82 114.403 29.746 114.403 32.536C114.403 35.326 112.405 37.27 109.687 37.27ZM106.699 32.518C106.699 34.48 107.851 35.866 109.687 35.866C111.523 35.866 112.675 34.444 112.675 32.518C112.675 30.592 111.541 29.206 109.687 29.206C107.833 29.206 106.699 30.556 106.699 32.518ZM116.728 37V28.09H118.366V29.296C118.654 28.792 119.554 27.82 121.21 27.82C123.118 27.82 124.504 28.99 124.504 31.186V37H122.83V31.402C122.83 29.782 122.02 29.206 120.796 29.206C119.086 29.206 118.42 30.556 118.42 32.338V37H116.728ZM130.549 37.27C127.687 37.27 126.589 35.668 126.535 34.102H128.083C128.191 34.876 128.803 35.92 130.531 35.92C131.791 35.92 132.547 35.38 132.547 34.642C132.547 33.94 132.133 33.58 130.675 33.292L129.847 33.13C127.597 32.698 126.985 31.78 126.985 30.448C126.985 28.972 128.353 27.82 130.279 27.82C132.907 27.82 133.933 29.242 134.077 30.502H132.475C132.295 29.71 131.611 29.17 130.261 29.17C129.109 29.17 128.533 29.674 128.533 30.322C128.533 30.988 129.055 31.294 130.333 31.546L131.233 31.726C133.231 32.122 134.275 32.986 134.275 34.534C134.275 36.1 132.979 37.27 130.549 37.27ZM145.898 37.27C143.882 37.27 142.91 36.028 142.712 35.704V37H141.074V24.31H142.766V29.224C143.198 28.648 144.116 27.82 145.88 27.82C148.544 27.82 150.308 29.818 150.308 32.536C150.308 35.326 148.544 37.27 145.898 37.27ZM142.64 32.536C142.64 34.57 143.864 35.866 145.628 35.866C147.428 35.866 148.58 34.552 148.58 32.536C148.58 30.52 147.428 29.224 145.628 29.224C143.864 29.224 142.64 30.538 142.64 32.536ZM153.06 40.06L154.896 36.028L151.206 28.09H153.042L155.76 34.156L158.262 28.09H160.026L154.824 40.06H153.06ZM169.941 37.27C167.205 37.27 165.369 35.218 165.369 32.59C165.369 29.818 167.331 27.82 169.941 27.82C172.839 27.82 174.189 29.692 174.387 31.276H172.641C172.371 29.98 171.543 29.206 169.941 29.206C168.249 29.206 167.115 30.466 167.115 32.572C167.115 34.606 168.285 35.866 169.941 35.866C171.597 35.866 172.443 34.93 172.659 33.688H174.369C174.261 35.11 173.019 37.27 169.941 37.27ZM180.361 37.27C177.715 37.27 175.969 35.326 175.969 32.536C175.969 29.818 177.697 27.82 180.343 27.82C182.089 27.82 183.133 28.648 183.565 29.26V28.09H185.203V37H183.565V35.704C183.367 36.028 182.341 37.27 180.361 37.27ZM177.697 32.536C177.697 34.552 178.849 35.866 180.649 35.866C182.413 35.866 183.637 34.57 183.637 32.536C183.637 30.538 182.413 29.224 180.649 29.224C178.849 29.224 177.697 30.52 177.697 32.536ZM188.148 40.06V28.09H189.786V29.386C189.984 29.062 190.956 27.82 192.972 27.82C195.618 27.82 197.382 29.764 197.382 32.554C197.382 35.272 195.618 37.27 192.954 37.27C191.19 37.27 190.182 36.46 189.84 35.866V40.06H188.148ZM189.714 32.554C189.714 34.552 190.938 35.866 192.702 35.866C194.502 35.866 195.654 34.57 195.654 32.554C195.654 30.538 194.502 29.224 192.702 29.224C190.938 29.224 189.714 30.52 189.714 32.554ZM202.562 37C200.996 37 200.114 36.028 200.114 34.246V29.386H198.494V28.09H200.114V25.84H201.788V28.09H203.912V29.386H201.788V34.3C201.788 35.254 202.256 35.56 203.084 35.56H203.912V37H202.562ZM209.226 37.27C207.282 37.27 206.022 36.118 206.022 33.724V28.09H207.696V33.454C207.696 35.2 208.578 35.758 209.622 35.758C210.828 35.758 211.98 35.074 211.98 33.022V28.09H213.654V37H212.016V35.848C211.638 36.388 210.864 37.27 209.226 37.27ZM216.607 37V28.09H218.245V29.764C218.623 29.008 219.523 28 221.215 28H221.467V29.692H221.017C219.055 29.692 218.299 30.844 218.299 32.608V37H216.607ZM223.287 37V28.09H224.979V37H223.287ZM223.035 25.174C223.035 24.616 223.413 24.112 224.115 24.112C224.817 24.112 225.213 24.616 225.213 25.174C225.213 25.75 224.817 26.272 224.115 26.272C223.413 26.272 223.035 25.75 223.035 25.174ZM227.927 37V28.09H229.565V29.296C229.853 28.792 230.753 27.82 232.409 27.82C234.317 27.82 235.703 28.99 235.703 31.186V37H234.029V31.402C234.029 29.782 233.219 29.206 231.995 29.206C230.285 29.206 229.619 30.556 229.619 32.338V37H227.927ZM242.36 40.33C239.624 40.33 238.274 39.088 238.13 37.198H239.84C239.876 38.044 240.488 38.98 242.36 38.98C244.052 38.98 245.096 38.026 245.096 36.226V35.128C244.448 36.028 243.368 36.532 241.928 36.532C239.822 36.532 237.95 34.966 237.95 32.266C237.95 29.584 239.66 27.82 242 27.82C243.71 27.82 244.628 28.612 245.132 29.206V28.09H246.77V36.082C246.77 38.836 244.97 40.33 242.36 40.33ZM239.66 32.23C239.66 33.922 240.668 35.164 242.432 35.164C244.178 35.164 245.204 33.922 245.204 32.23C245.204 30.34 244.178 29.206 242.432 29.206C240.668 29.206 239.66 30.34 239.66 32.23ZM257.247 37C255.681 37 254.799 36.028 254.799 34.246V29.386H253.179V28.09H254.799V25.84H256.473V28.09H258.597V29.386H256.473V34.3C256.473 35.254 256.941 35.56 257.769 35.56H258.597V37H257.247ZM260.816 37V24.31H262.508V29.188C262.814 28.702 263.678 27.82 265.298 27.82C267.206 27.82 268.592 28.99 268.592 31.186V37H266.9V31.51C266.9 29.818 266.108 29.188 264.848 29.188C263.174 29.188 262.508 30.52 262.508 32.266V37H260.816ZM275.195 37.27C272.387 37.27 270.821 35.38 270.821 32.572C270.821 29.728 272.477 27.82 275.195 27.82C278.021 27.82 279.677 29.926 279.497 32.95H272.513C272.567 34.786 273.521 35.884 275.159 35.884C276.599 35.884 277.265 35.128 277.607 34.246H279.335C279.065 35.416 277.967 37.27 275.195 37.27ZM272.567 31.654H277.715C277.643 29.926 276.473 29.152 275.195 29.152C273.701 29.152 272.765 29.98 272.567 31.654ZM286.374 37V28.09H288.066V37H286.374ZM286.122 25.174C286.122 24.616 286.5 24.112 287.202 24.112C287.904 24.112 288.3 24.616 288.3 25.174C288.3 25.75 287.904 26.272 287.202 26.272C286.5 26.272 286.122 25.75 286.122 25.174ZM291.015 37V28.09H292.653V29.296C292.941 28.792 293.841 27.82 295.497 27.82C297.405 27.82 298.791 28.99 298.791 31.186V37H297.117V31.402C297.117 29.782 296.307 29.206 295.083 29.206C293.373 29.206 292.707 30.556 292.707 32.338V37H291.015ZM304.55 37C302.984 37 302.102 36.028 302.102 34.246V29.386H300.482V28.09H302.102V25.84H303.776V28.09H305.9V29.386H303.776V34.3C303.776 35.254 304.244 35.56 305.072 35.56H305.9V37H304.55ZM311.74 37.27C308.932 37.27 307.366 35.38 307.366 32.572C307.366 29.728 309.022 27.82 311.74 27.82C314.566 27.82 316.222 29.926 316.042 32.95H309.058C309.112 34.786 310.066 35.884 311.704 35.884C313.144 35.884 313.81 35.128 314.152 34.246H315.88C315.61 35.416 314.512 37.27 311.74 37.27ZM309.112 31.654H314.26C314.188 29.926 313.018 29.152 311.74 29.152C310.246 29.152 309.31 29.98 309.112 31.654ZM320.454 37C319.014 37 318.33 36.208 318.33 34.93V24.31H320.004V34.822C320.004 35.398 320.274 35.614 320.796 35.614H321.138V37H320.454ZM325.429 37C323.989 37 323.305 36.208 323.305 34.93V24.31H324.979V34.822C324.979 35.398 325.249 35.614 325.771 35.614H326.113V37H325.429ZM328.333 37V28.09H330.025V37H328.333ZM328.081 25.174C328.081 24.616 328.459 24.112 329.161 24.112C329.863 24.112 330.259 24.616 330.259 25.174C330.259 25.75 329.863 26.272 329.161 26.272C328.459 26.272 328.081 25.75 328.081 25.174ZM336.79 40.33C334.054 40.33 332.704 39.088 332.56 37.198H334.27C334.306 38.044 334.918 38.98 336.79 38.98C338.482 38.98 339.526 38.026 339.526 36.226V35.128C338.878 36.028 337.798 36.532 336.358 36.532C334.252 36.532 332.38 34.966 332.38 32.266C332.38 29.584 334.09 27.82 336.43 27.82C338.14 27.82 339.058 28.612 339.562 29.206V28.09H341.2V36.082C341.2 38.836 339.4 40.33 336.79 40.33ZM334.09 32.23C334.09 33.922 335.098 35.164 336.862 35.164C338.608 35.164 339.634 33.922 339.634 32.23C339.634 30.34 338.608 29.206 336.862 29.206C335.098 29.206 334.09 30.34 334.09 32.23ZM347.916 37.27C345.108 37.27 343.542 35.38 343.542 32.572C343.542 29.728 345.198 27.82 347.916 27.82C350.742 27.82 352.398 29.926 352.218 32.95H345.234C345.288 34.786 346.242 35.884 347.88 35.884C349.32 35.884 349.986 35.128 350.328 34.246H352.056C351.786 35.416 350.688 37.27 347.916 37.27ZM345.288 31.654H350.436C350.364 29.926 349.194 29.152 347.916 29.152C346.422 29.152 345.486 29.98 345.288 31.654ZM354.56 37V28.09H356.198V29.296C356.486 28.792 357.386 27.82 359.042 27.82C360.95 27.82 362.336 28.99 362.336 31.186V37H360.662V31.402C360.662 29.782 359.852 29.206 358.628 29.206C356.918 29.206 356.252 30.556 356.252 32.338V37H354.56ZM369.119 37.27C366.383 37.27 364.547 35.218 364.547 32.59C364.547 29.818 366.509 27.82 369.119 27.82C372.017 27.82 373.367 29.692 373.565 31.276H371.819C371.549 29.98 370.721 29.206 369.119 29.206C367.427 29.206 366.293 30.466 366.293 32.572C366.293 34.606 367.463 35.866 369.119 35.866C370.775 35.866 371.621 34.93 371.837 33.688H373.547C373.439 35.11 372.197 37.27 369.119 37.27ZM379.539 37.27C376.731 37.27 375.165 35.38 375.165 32.572C375.165 29.728 376.821 27.82 379.539 27.82C382.365 27.82 384.021 29.926 383.841 32.95H376.857C376.911 34.786 377.865 35.884 379.503 35.884C380.943 35.884 381.609 35.128 381.951 34.246H383.679C383.409 35.416 382.311 37.27 379.539 37.27ZM376.911 31.654H382.059C381.987 29.926 380.817 29.152 379.539 29.152C378.045 29.152 377.109 29.98 376.911 31.654ZM3.046 61C1.606 61 0.922 60.208 0.922 58.93V48.31H2.596V58.822C2.596 59.398 2.866 59.614 3.388 59.614H3.73V61H3.046ZM9.89598 61.27C7.17798 61.27 5.17998 59.326 5.17998 56.536C5.17998 53.746 7.17798 51.82 9.89598 51.82C12.614 51.82 14.612 53.746 14.612 56.536C14.612 59.326 12.614 61.27 9.89598 61.27ZM6.90798 56.518C6.90798 58.48 8.05998 59.866 9.89598 59.866C11.732 59.866 12.884 58.444 12.884 56.518C12.884 54.592 11.75 53.206 9.89598 53.206C8.04198 53.206 6.90798 54.556 6.90798 56.518ZM20.8789 61.27C18.1429 61.27 16.3069 59.218 16.3069 56.59C16.3069 53.818 18.2689 51.82 20.8789 51.82C23.7769 51.82 25.1269 53.692 25.3249 55.276H23.5789C23.3089 53.98 22.4809 53.206 20.8789 53.206C19.1869 53.206 18.0529 54.466 18.0529 56.572C18.0529 58.606 19.2229 59.866 20.8789 59.866C22.5349 59.866 23.3809 58.93 23.5969 57.688H25.3069C25.1989 59.11 23.9569 61.27 20.8789 61.27ZM27.5365 61V48.31H29.2285V55.942L32.7025 52.09H34.7365L31.0285 56.104L35.1865 61H33.0805L29.2285 56.428V61H27.5365ZM40.0173 61.27C37.2093 61.27 35.6433 59.38 35.6433 56.572C35.6433 53.728 37.2993 51.82 40.0173 51.82C42.8433 51.82 44.4993 53.926 44.3193 56.95H37.3353C37.3893 58.786 38.3433 59.884 39.9813 59.884C41.4213 59.884 42.0873 59.128 42.4293 58.246H44.1573C43.8873 59.416 42.7893 61.27 40.0173 61.27ZM37.3893 55.654H42.5373C42.4653 53.926 41.2953 53.152 40.0173 53.152C38.5233 53.152 37.5873 53.98 37.3893 55.654ZM50.4235 61.27C47.7775 61.27 46.0315 59.326 46.0315 56.536C46.0315 53.818 47.7775 51.82 50.4235 51.82C52.1695 51.82 53.1415 52.648 53.5735 53.224V48.31H55.2655V61H53.6275V59.704C53.4295 60.028 52.4035 61.27 50.4235 61.27ZM47.7595 56.536C47.7595 58.552 48.9115 59.866 50.7115 59.866C52.4755 59.866 53.6995 58.57 53.6995 56.536C53.6995 54.538 52.4755 53.224 50.7115 53.224C48.9115 53.224 47.7595 54.52 47.7595 56.536ZM64.1563 61L61.4923 52.09H63.1663L65.3083 59.668L67.0543 52.09H68.9263L70.7623 59.668L72.8863 52.09H74.5063L71.8243 61H69.6643L68.0083 53.926L66.3523 61H64.1563ZM76.4916 61V52.09H78.1836V61H76.4916ZM76.2396 49.174C76.2396 48.616 76.6176 48.112 77.3196 48.112C78.0216 48.112 78.4176 48.616 78.4176 49.174C78.4176 49.75 78.0216 50.272 77.3196 50.272C76.6176 50.272 76.2396 49.75 76.2396 49.174ZM84.1203 61C82.5543 61 81.6723 60.028 81.6723 58.246V53.386H80.0523V52.09H81.6723V49.84H83.3463V52.09H85.4703V53.386H83.3463V58.3C83.3463 59.254 83.8143 59.56 84.6423 59.56H85.4703V61H84.1203ZM87.6889 61V48.31H89.3809V53.188C89.6869 52.702 90.5509 51.82 92.1709 51.82C94.0789 51.82 95.4649 52.99 95.4649 55.186V61H93.7729V55.51C93.7729 53.818 92.9809 53.188 91.7209 53.188C90.0469 53.188 89.3809 54.52 89.3809 56.266V61H87.6889ZM98.3061 61V52.09H99.9981V61H98.3061ZM98.0541 49.174C98.0541 48.616 98.4321 48.112 99.1341 48.112C99.8361 48.112 100.232 48.616 100.232 49.174C100.232 49.75 99.8361 50.272 99.1341 50.272C98.4321 50.272 98.0541 49.75 98.0541 49.174ZM102.947 61V52.09H104.585V53.296C104.873 52.792 105.773 51.82 107.429 51.82C109.337 51.82 110.723 52.99 110.723 55.186V61H109.049V55.402C109.049 53.782 108.239 53.206 107.015 53.206C105.305 53.206 104.639 54.556 104.639 56.338V61H102.947ZM118.405 61V48.31H123.949C126.127 48.31 128.071 49.75 128.071 52.162C128.071 54.574 126.235 55.978 123.787 55.978H120.169V61H118.405ZM120.169 54.448H123.733C125.137 54.448 126.217 53.656 126.217 52.162C126.217 50.632 125.155 49.84 123.715 49.84H120.169V54.448ZM133.421 61.27C131.243 61.27 129.551 60.082 129.551 57.958C129.551 56.806 130.127 55.564 131.801 54.538L132.359 54.196L132.197 54.034C131.351 53.206 130.595 52.306 130.595 50.956C130.595 49.3 132.035 48.04 133.979 48.04C135.995 48.04 137.345 49.318 137.345 50.884C137.345 52.252 136.481 53.134 135.167 54.016L134.663 54.34L137.417 57.022L139.145 55.006H141.233L138.515 58.084L141.521 61H139.271L137.471 59.236C135.851 60.946 134.771 61.27 133.421 61.27ZM131.351 57.868C131.351 59.11 132.305 59.812 133.349 59.812C134.267 59.812 135.131 59.524 136.409 58.174L133.385 55.204L132.683 55.672C131.603 56.392 131.351 57.202 131.351 57.868ZM132.233 50.992C132.233 51.784 132.647 52.396 133.493 53.206L133.673 53.386L134.195 53.062C135.581 52.216 135.689 51.568 135.689 50.974C135.689 50.056 135.041 49.462 133.961 49.462C132.917 49.462 132.233 50.074 132.233 50.992ZM143.471 61V48.31H145.235V61H143.471ZM148.798 61V48.31H153.028C156.556 48.31 159.634 50.488 159.634 54.646C159.634 58.678 156.79 61 153.1 61H148.798ZM150.562 59.47H152.794C155.692 59.47 157.762 57.886 157.762 54.7C157.762 51.37 155.674 49.84 152.848 49.84H150.562V59.47ZM165.301 61.27C162.439 61.27 161.341 59.668 161.287 58.102H162.835C162.943 58.876 163.555 59.92 165.283 59.92C166.543 59.92 167.299 59.38 167.299 58.642C167.299 57.94 166.885 57.58 165.427 57.292L164.599 57.13C162.349 56.698 161.737 55.78 161.737 54.448C161.737 52.972 163.105 51.82 165.031 51.82C167.659 51.82 168.685 53.242 168.829 54.502H167.227C167.047 53.71 166.363 53.17 165.013 53.17C163.861 53.17 163.285 53.674 163.285 54.322C163.285 54.988 163.807 55.294 165.085 55.546L165.985 55.726C167.983 56.122 169.027 56.986 169.027 58.534C169.027 60.1 167.731 61.27 165.301 61.27ZM172.154 61.27C171.416 61.27 170.894 60.73 170.894 60.01C170.894 59.254 171.416 58.75 172.154 58.75C172.874 58.75 173.378 59.254 173.378 60.01C173.378 60.73 172.874 61.27 172.154 61.27Z" fill="#757575"/>
</svg>
