<svg width="410" height="156" viewBox="0 0 410 156" fill="none" xmlns="http://www.w3.org/2000/svg">
<path d="M0.188 52V1.24H24.884C30.068 1.24 34.364 2.728 37.772 5.704C41.18 8.68 42.884 12.616 42.884 17.512C42.884 22.504 41.204 26.488 37.844 29.464C34.484 32.392 30.044 33.856 24.524 33.856H12.212V52H0.188ZM12.212 24.568H23.084C25.292 24.568 27.092 23.968 28.484 22.768C29.876 21.568 30.572 19.888 30.572 17.728C30.572 15.52 29.876 13.816 28.484 12.616C27.092 11.416 25.268 10.816 23.012 10.816H12.212V24.568ZM64.4649 53.08C59.2329 53.08 54.9849 51.832 51.7209 49.336C48.5049 46.84 46.8969 43.456 46.8969 39.184C46.8969 33.472 50.3769 28.768 57.3369 25.072L58.3449 24.496C56.1369 22.384 54.4569 20.44 53.3049 18.664C52.2009 16.84 51.6489 14.8 51.6489 12.544C51.6489 8.896 53.1369 5.92 56.1129 3.616C59.1369 1.312 63.0489 0.159998 67.8489 0.159998C72.6969 0.159998 76.5609 1.288 79.4409 3.544C82.3209 5.752 83.7609 8.608 83.7609 12.112C83.7609 14.8 82.9449 17.152 81.3129 19.168C79.7289 21.136 77.2809 23.056 73.9689 24.928L72.7449 25.648L80.8809 33.136L86.7129 26.872H100.177L87.7929 39.616L101.185 52H87.2889L81.2409 46.24C78.4569 48.832 75.7449 50.632 73.1049 51.64C70.4649 52.6 67.5849 53.08 64.4649 53.08ZM58.2729 38.32C58.2729 40.192 58.8969 41.728 60.1449 42.928C61.4409 44.08 63.0249 44.656 64.8969 44.656C68.1609 44.656 71.3769 43.048 74.5449 39.832L64.4649 30.328L62.9529 31.192C59.8329 33.016 58.2729 35.392 58.2729 38.32ZM62.1609 12.76C62.1609 13.912 62.4969 15.016 63.1689 16.072C63.8409 17.08 65.0169 18.376 66.6969 19.96L67.9209 19.312C70.0809 18.112 71.4969 17.008 72.1689 16C72.8889 14.944 73.2489 13.84 73.2489 12.688C73.2489 11.296 72.7449 10.192 71.7369 9.376C70.7289 8.512 69.4089 8.08 67.7769 8.08C66.1449 8.08 64.8009 8.512 63.7449 9.376C62.6889 10.192 62.1609 11.32 62.1609 12.76ZM106.711 52V1.24H118.807V52H106.711ZM130.266 52V1.24H149.202C157.41 1.24 164.106 3.496 169.29 8.008C174.522 12.52 177.138 18.712 177.138 26.584C177.138 34.456 174.618 40.672 169.578 45.232C164.538 49.744 157.818 52 149.418 52H130.266ZM142.362 42.136H148.626C153.474 42.136 157.338 40.816 160.218 38.176C163.098 35.536 164.538 31.696 164.538 26.656C164.538 21.52 163.122 17.656 160.29 15.064C157.458 12.424 153.618 11.104 148.77 11.104H142.362V42.136ZM0.188 142V91.24H19.124C27.332 91.24 34.028 93.496 39.212 98.008C44.444 102.52 47.06 108.712 47.06 116.584C47.06 124.456 44.54 130.672 39.5 135.232C34.46 139.744 27.74 142 19.34 142H0.188ZM12.284 132.136H18.548C23.396 132.136 27.26 130.816 30.14 128.176C33.02 125.536 34.46 121.696 34.46 116.656C34.46 111.52 33.044 107.656 30.212 105.064C27.38 102.424 23.54 101.104 18.692 101.104H12.284V132.136ZM54.4439 142V105.928H66.0359V142H54.4439ZM53.6519 94.48C53.6519 92.704 54.2519 91.216 55.4519 90.016C56.6519 88.816 58.2359 88.216 60.2039 88.216C62.2199 88.216 63.8519 88.84 65.0999 90.088C66.3479 91.288 66.9719 92.752 66.9719 94.48C66.9719 96.304 66.3479 97.84 65.0999 99.088C63.8519 100.336 62.2199 100.96 60.2039 100.96C58.2359 100.96 56.6519 100.336 55.4519 99.088C54.2519 97.84 53.6519 96.304 53.6519 94.48ZM93.2548 155.248C87.2548 155.248 82.6468 154.12 79.4308 151.864C76.2148 149.608 74.4148 146.44 74.0308 142.36H85.5508C85.9348 145.96 88.5268 147.76 93.3268 147.76C96.0628 147.76 98.1748 147.016 99.6628 145.528C101.151 144.088 101.895 141.976 101.895 139.192V135.304C99.3508 138.376 95.3428 139.912 89.8708 139.912C85.1188 139.912 81.1828 138.376 78.0628 135.304C74.9908 132.184 73.4548 127.984 73.4548 122.704C73.4548 117.328 74.9428 113.032 77.9188 109.816C80.9428 106.552 84.8548 104.92 89.6548 104.92C94.8388 104.92 98.9428 106.672 101.967 110.176V105.928H113.199V138.328C113.199 143.848 111.399 148.048 107.799 150.928C104.247 153.808 99.3988 155.248 93.2548 155.248ZM85.1908 123.136C85.1428 125.92 85.8868 128.176 87.4228 129.904C88.9588 131.632 91.0468 132.496 93.6868 132.496C96.2788 132.496 98.3428 131.632 99.8788 129.904C101.463 128.176 102.255 125.92 102.255 123.136C102.303 120.112 101.559 117.76 100.023 116.08C98.4868 114.352 96.3748 113.488 93.6868 113.488C90.9988 113.488 88.9108 114.328 87.4228 116.008C85.9348 117.688 85.1908 120.064 85.1908 123.136ZM122.436 142V105.928H134.028V142H122.436ZM121.644 94.48C121.644 92.704 122.244 91.216 123.444 90.016C124.644 88.816 126.228 88.216 128.196 88.216C130.212 88.216 131.844 88.84 133.092 90.088C134.34 91.288 134.964 92.752 134.964 94.48C134.964 96.304 134.34 97.84 133.092 99.088C131.844 100.336 130.212 100.96 128.196 100.96C126.228 100.96 124.644 100.336 123.444 99.088C122.244 97.84 121.644 96.304 121.644 94.48ZM157.791 142C153.903 142 150.927 140.992 148.863 138.976C146.799 136.912 145.767 133.936 145.767 130.048V113.776H140.151V105.928H145.767V96.712H157.215V105.928H164.631V113.776H157.215V129.4C157.215 130.792 157.527 131.776 158.151 132.352C158.823 132.928 159.855 133.216 161.247 133.216H164.631V142H157.791ZM172.006 142V105.928H183.598V142H172.006ZM171.214 94.48C171.214 92.704 171.814 91.216 173.014 90.016C174.214 88.816 175.798 88.216 177.766 88.216C179.782 88.216 181.414 88.84 182.662 90.088C183.91 91.288 184.534 92.752 184.534 94.48C184.534 96.304 183.91 97.84 182.662 99.088C181.414 100.336 179.782 100.96 177.766 100.96C175.798 100.96 174.214 100.336 173.014 99.088C171.814 97.84 171.214 96.304 171.214 94.48ZM189.649 142L205.705 113.992H191.521V105.928H222.409L206.713 133.216H221.761V142H189.649ZM243.659 143.08C238.475 143.08 234.323 141.328 231.203 137.824C228.083 134.32 226.523 129.688 226.523 123.928C226.523 118.312 228.083 113.776 231.203 110.32C234.323 106.816 238.451 105.064 243.587 105.064C246.419 105.064 248.891 105.568 251.003 106.576C253.163 107.584 254.819 108.832 255.971 110.32V105.928H267.203V142H255.971V137.32C254.963 138.76 253.403 140.08 251.291 141.28C249.179 142.48 246.635 143.08 243.659 143.08ZM240.635 116.296C239.003 118.168 238.187 120.712 238.187 123.928C238.187 127.144 239.003 129.688 240.635 131.56C242.267 133.432 244.451 134.368 247.187 134.368C249.875 134.368 252.059 133.432 253.739 131.56C255.419 129.688 256.259 127.144 256.259 123.928C256.259 120.712 255.419 118.168 253.739 116.296C252.059 114.424 249.875 113.488 247.187 113.488C244.451 113.488 242.267 114.424 240.635 116.296ZM290.893 142C287.005 142 284.029 140.992 281.965 138.976C279.901 136.912 278.869 133.936 278.869 130.048V113.776H273.253V105.928H278.869V96.712H290.316V105.928H297.733V113.776H290.316V129.4C290.316 130.792 290.629 131.776 291.253 132.352C291.925 132.928 292.957 133.216 294.349 133.216H297.733V142H290.893ZM305.108 142V105.928H316.7V142H305.108ZM304.316 94.48C304.316 92.704 304.916 91.216 306.116 90.016C307.316 88.816 308.9 88.216 310.868 88.216C312.884 88.216 314.516 88.84 315.764 90.088C317.012 91.288 317.636 92.752 317.636 94.48C317.636 96.304 317.012 97.84 315.764 99.088C314.516 100.336 312.884 100.96 310.868 100.96C308.9 100.96 307.316 100.336 306.116 99.088C304.916 97.84 304.316 96.304 304.316 94.48ZM359.759 137.824C355.919 141.328 350.927 143.08 344.783 143.08C338.639 143.08 333.623 141.328 329.735 137.824C325.895 134.272 323.975 129.616 323.975 123.856C323.975 118.144 325.895 113.56 329.735 110.104C333.623 106.6 338.639 104.848 344.783 104.848C350.927 104.848 355.919 106.6 359.759 110.104C363.647 113.608 365.591 118.192 365.591 123.856C365.591 129.616 363.647 134.272 359.759 137.824ZM338.159 116.296C336.527 118.168 335.711 120.688 335.711 123.856C335.711 127.024 336.527 129.568 338.159 131.488C339.791 133.408 341.999 134.368 344.783 134.368C347.519 134.368 349.703 133.408 351.335 131.488C353.015 129.52 353.855 126.976 353.855 123.856C353.855 120.736 353.015 118.24 351.335 116.368C349.703 114.448 347.519 113.488 344.783 113.488C341.999 113.488 339.791 114.424 338.159 116.296ZM372.819 142V105.928H384.051V110.464C385.059 108.976 386.547 107.68 388.515 106.576C390.483 105.424 392.811 104.848 395.499 104.848C399.627 104.848 402.963 106.072 405.507 108.52C408.099 110.92 409.395 114.496 409.395 119.248V142H397.803V120.904C397.803 116.2 395.715 113.848 391.539 113.848C386.835 113.848 384.483 116.92 384.483 123.064V142H372.819Z" fill="url(#paint0_linear_3017_1920)"/>
<defs>
<linearGradient id="paint0_linear_3017_1920" x1="209.5" y1="-18" x2="209.5" y2="162" gradientUnits="userSpaceOnUse">
<stop stop-color="#D0F94A"/>
<stop offset="0.54" stop-color="#00D49C"/>
<stop offset="1" stop-color="#00879F"/>
</linearGradient>
</defs>
</svg>
